<?xml version="1.0" encoding="UTF-8"?>
<svg width="500px" height="500px" viewBox="0 0 500 500" version="1.1" xmlns="http://www.w3.org/2000/svg" xmlns:xlink="http://www.w3.org/1999/xlink">
    <!-- Generator: Sketch 49.3 (51167) - http://www.bohemiancoding.com/sketch -->
    <title>micronaut</title>
    <desc>Created with Sketch.</desc>
    <defs></defs>
    <g id="Page-1" stroke="none" stroke-width="1" fill="none" fill-rule="evenodd">
        <g id="micronaut" fill="#FFFFFF">
            <g id="Group">
                <path d="M340.436593,256.265309 C344.182935,257.272641 348.16713,255.923759 350.531242,252.847683 C352.895353,249.771607 353.173775,245.574163 351.236671,242.212733 C349.299566,238.851302 345.528445,236.987911 341.681881,237.491508 C337.835318,237.995106 334.670884,240.766509 333.664241,244.513339 C332.289896,249.628793 335.321805,254.890025 340.436593,256.265309 Z" id="Shape" fill-rule="nonzero"></path>
                <path d="M331.026229,209.501227 C334.773059,208.494583 337.544463,205.33015 338.04806,201.483586 C338.551657,197.637023 336.688266,193.865901 333.326835,191.928797 C329.965405,189.991693 325.767961,190.270114 322.691885,192.634226 C319.615809,194.998338 318.266927,198.982533 319.274259,202.728875 C320.649544,207.843662 325.910776,210.875572 331.026229,209.501227 Z" id="Shape" fill-rule="nonzero"></path>
                <path d="M286.973475,161.091634 C283.234525,164.840211 283.239726,170.909251 286.985096,174.651412 C290.730467,178.393574 296.799509,178.393574 300.54488,174.651412 C304.29025,170.909251 304.295451,164.840211 300.556501,161.091634 C298.756887,159.287387 296.313305,158.273381 293.764988,158.273381 C291.216671,158.273381 288.773089,159.287387 286.973475,161.091634 Z" id="Shape" fill-rule="nonzero"></path>
                <path d="M249.496652,147.811429 C245.748701,146.804098 241.762796,148.15298 239.397669,151.229056 C237.032542,154.305132 236.754001,158.502575 238.691937,161.864006 C240.629873,165.225436 244.402613,167.088827 248.250828,166.58523 C252.099043,166.081633 255.264836,163.310229 256.271911,159.5634 C257.625297,154.450787 254.600372,149.20393 249.496652,147.811429 Z" id="Shape" fill-rule="nonzero"></path>
                <path d="M203.927908,179.525208 C207.674738,178.518564 210.446141,175.354131 210.949739,171.507567 C211.453336,167.661003 209.589945,163.889882 206.228514,161.952778 C202.867084,160.015674 198.66964,160.294095 195.593564,162.658207 C192.517488,165.022319 191.168606,169.006514 192.175938,172.752856 C193.551222,177.867643 198.812454,180.899553 203.927908,179.525208 Z" id="Shape" fill-rule="nonzero"></path>
                <path d="M161.074194,199.474008 C157.335244,203.219591 157.340446,209.283785 161.085816,213.022958 C164.831186,216.762131 170.900229,216.762131 174.645599,213.022958 C178.390969,209.283785 178.396171,203.219591 174.657221,199.474008 C172.862438,197.662149 170.417046,196.642686 167.865707,196.642686 C165.314369,196.642686 162.868976,197.662149 161.074194,199.474008 Z" id="Shape" fill-rule="nonzero"></path>
                <path d="M159.568594,243.734691 C155.820644,242.727359 151.834738,244.076241 149.469611,247.152317 C147.104485,250.228393 146.825944,254.425837 148.76388,257.787267 C150.701815,261.148698 154.474556,263.012089 158.322771,262.508492 C162.170986,262.004894 165.336778,259.233491 166.343854,255.486661 C167.697239,250.374048 164.672315,245.127191 159.568594,243.734691 Z" id="Shape" fill-rule="nonzero"></path>
                <path d="M168.973771,289.305598 C165.226941,290.311928 162.455537,293.475378 161.95194,297.320744 C161.448343,301.166111 163.311734,304.936059 166.673165,306.872561 C170.034595,308.809062 174.232039,308.530727 177.308115,306.167351 C180.384191,303.803975 181.733073,299.821019 180.725741,296.075843 C180.073965,293.614962 178.466408,291.515971 176.259939,290.244837 C174.05347,288.973702 171.430664,288.635604 168.973771,289.305598 Z" id="Shape" fill-rule="nonzero"></path>
                <path d="M213.008019,338.900592 C215.756945,336.163706 216.582571,332.042321 215.099495,328.460296 C213.61642,324.878272 210.117098,322.541966 206.235012,322.541966 C202.352926,322.541966 198.853604,324.878272 197.370529,328.460296 C195.887453,332.042321 196.713079,336.163706 199.462005,338.900592 C201.250447,340.708836 203.689719,341.726619 206.235012,341.726619 C208.780305,341.726619 211.219577,340.708836 213.008019,338.900592 Z" id="Shape" fill-rule="nonzero"></path>
                <path d="M250.519589,352.192887 C254.27484,353.195187 258.264012,351.833765 260.622164,348.745088 C262.980316,345.656411 263.241564,341.450687 261.283774,338.094094 C259.325984,334.737502 255.535944,332.893181 251.685499,333.423353 C247.835055,333.953524 244.684913,336.753446 243.707767,340.514152 C242.403185,345.613975 245.437265,350.815845 250.519589,352.192887 Z" id="Shape" fill-rule="nonzero"></path>
                <path d="M296.072092,319.267657 C292.325262,320.274733 289.553859,323.440525 289.050261,327.28874 C288.546664,331.136955 290.410055,334.909695 293.771486,336.847631 C297.132916,338.785567 301.33036,338.507026 304.406436,336.141899 C307.482512,333.776773 308.831394,329.790867 307.824062,326.042917 C306.431562,320.939196 301.184705,317.914272 296.072092,319.267657 Z" id="Shape" fill-rule="nonzero"></path>
                <path d="M338.925806,300.551981 C342.664756,296.800446 342.659554,290.726615 338.914184,286.981499 C335.168814,283.236383 329.099771,283.236383 325.354401,286.981499 C321.609031,290.726615 321.603829,296.800446 325.342779,300.551981 C329.099151,304.292425 335.169434,304.292425 338.925806,300.551981 Z" id="Shape" fill-rule="nonzero"></path>
                <path d="M393.236987,238.998533 C388.787478,237.804974 384.057185,239.409604 381.251982,243.064138 C378.446779,246.718672 378.119149,251.703353 380.421875,255.693677 C382.724601,259.684 387.204164,261.894076 391.771611,261.29328 C396.339057,260.692485 400.094834,257.399144 401.287511,252.94904 C402.915821,246.873508 399.311706,240.628048 393.236987,238.998533 Z" id="Shape" fill-rule="nonzero"></path>
                <path d="M374.052158,191.455377 C378.502262,190.2627 381.795602,186.506923 382.396398,181.939476 C382.997193,177.372029 380.787118,172.892467 376.796794,170.589741 C372.806471,168.287015 367.82179,168.614645 364.167256,171.419848 C360.512722,174.225051 358.908091,178.955344 360.101651,183.404853 C361.731166,189.479572 367.976625,193.083687 374.052158,191.455377 Z" id="Shape" fill-rule="nonzero"></path>
                <path d="M312.685798,136.948186 C315.942894,140.20764 320.842991,141.183741 325.100527,139.421202 C329.358063,137.658664 332.134293,133.504712 332.134293,128.896882 C332.134293,124.289053 329.358063,120.135101 325.100527,118.372563 C320.842991,116.610024 315.942894,117.586125 312.685798,120.845579 C308.241425,125.293172 308.241425,132.500593 312.685798,136.948186 Z" id="Shape" fill-rule="nonzero"></path>
                <path d="M247.050783,120.713697 C251.500291,121.907257 256.230585,120.302626 259.035788,116.648092 C261.84099,112.993558 262.168621,108.008877 259.865895,104.018554 C257.563168,100.02823 253.083606,97.8181544 248.516159,98.4189499 C243.948712,99.0197454 240.192936,102.313086 239.000259,106.76319 C237.371949,112.838722 240.976063,119.084182 247.050783,120.713697 Z" id="Shape" fill-rule="nonzero"></path>
                <path d="M177.506595,117.888941 C173.056491,119.082055 169.763151,122.839207 169.162355,127.408327 C168.56156,131.977446 170.771635,136.458649 174.761959,138.762219 C178.752282,141.065788 183.736963,140.738038 187.391497,137.931808 C191.046031,135.125577 192.650662,130.393552 191.457102,125.942414 C189.810114,119.87891 183.579235,116.281893 177.506595,117.888941 Z" id="Shape" fill-rule="nonzero"></path>
                <path d="M120.839276,187.307898 C124.096371,190.567353 128.996468,191.543453 133.254004,189.780915 C137.511541,188.018376 140.28777,183.864424 140.28777,179.256595 C140.28777,174.648765 137.511541,170.494813 133.254004,168.732275 C128.996468,166.969737 124.096371,167.945837 120.839276,171.205292 C116.394902,175.652884 116.394902,182.860305 120.839276,187.307898 Z" id="Shape" fill-rule="nonzero"></path>
                <path d="M107.956802,261.001467 C112.40794,262.195026 117.139966,260.590396 119.946196,256.935862 C122.752426,253.281328 123.080176,248.296647 120.776607,244.306323 C118.473038,240.316 113.991835,238.105924 109.422715,238.70672 C104.853596,239.307515 101.096444,242.600856 99.9033298,247.05096 C98.2962816,253.1236 101.893298,259.354478 107.956802,261.001467 Z" id="Shape" fill-rule="nonzero"></path>
                <path d="M125.947842,308.544623 C121.497738,309.7373 118.204398,313.493077 117.603602,318.060524 C117.002807,322.627971 119.212882,327.107533 123.203206,329.410259 C127.193529,331.712985 132.17821,331.385355 135.832744,328.580152 C139.487278,325.774949 141.091909,321.044656 139.898349,316.595147 C138.268834,310.520428 132.023375,306.916313 125.947842,308.544623 Z" id="Shape" fill-rule="nonzero"></path>
                <path d="M188.494662,363.033026 C184.041725,358.59723 176.837403,358.606492 172.395886,363.053723 C167.954369,367.500954 167.954369,374.705281 172.395886,379.152512 C176.837403,383.599743 184.041725,383.609005 188.494662,379.173209 C190.640376,377.035754 191.846523,374.131781 191.846523,371.103118 C191.846523,368.074454 190.640376,365.170481 188.494662,363.033026 Z" id="Shape" fill-rule="nonzero"></path>
                <path d="M252.949217,378.087262 C248.499709,376.893703 243.769415,378.498333 240.964212,382.152867 C238.15901,385.807401 237.831379,390.792082 240.134105,394.782406 C242.436832,398.772729 246.916394,400.982805 251.483841,400.382009 C256.051288,399.781214 259.807064,396.487873 260.999741,392.037769 C262.628051,385.962237 259.023937,379.716777 252.949217,378.087262 Z" id="Shape" fill-rule="nonzero"></path>
                <path d="M322.527274,382.10183 C328.591676,380.455286 332.176823,374.206027 330.538608,368.137298 C328.900393,362.06857 322.658006,358.474148 316.589433,360.105238 C310.52086,361.736329 306.919817,367.976435 308.542578,374.049317 C310.188785,380.130555 316.443873,383.732291 322.527274,382.10183 Z" id="Shape" fill-rule="nonzero"></path>
                <path d="M379.173764,311.493061 C375.914485,308.233607 371.011103,307.257506 366.750712,309.020045 C362.490321,310.782583 359.71223,314.936535 359.71223,319.544365 C359.71223,324.152194 362.490321,328.306146 366.750712,330.068684 C371.011103,331.831223 375.914485,330.855122 379.173764,327.595668 C383.600752,323.139669 383.600752,315.94906 379.173764,311.493061 Z" id="Shape" fill-rule="nonzero"></path>
                <path d="M434.227987,286.019871 C440.093064,287.654471 446.364071,285.577876 450.094679,280.765739 C453.825288,275.953603 454.273897,269.362521 451.229735,264.089205 C448.185573,258.815888 442.253783,255.90861 436.221319,256.733307 C430.188854,257.558003 425.254898,261.950735 423.737588,267.847649 C421.70398,275.751116 426.367189,283.829063 434.227987,286.019871 Z" id="Shape" fill-rule="nonzero"></path>
                <path d="M437.171175,170.71556 C435.649294,164.81736 430.709206,160.427069 424.673464,159.608755 C418.637722,158.790441 412.707146,161.706909 409.669958,166.986999 C406.632771,172.267089 407.093226,178.86032 410.834843,183.666925 C414.57646,188.47353 420.854839,190.537228 426.718239,188.887784 C434.56391,186.680704 439.207568,178.607795 437.171175,170.71556 Z" id="Shape" fill-rule="nonzero"></path>
                <path d="M373.413412,88.4295869 C369.15085,84.0810403 362.680911,82.7436075 357.043481,85.0456778 C351.40605,87.3477481 347.721823,92.8316801 347.721823,98.9208633 C347.721823,105.010046 351.40605,110.493979 357.043481,112.796049 C362.680911,115.098119 369.15085,113.760686 373.413412,109.41214 C379.125985,103.584333 379.125985,94.2573937 373.413412,88.4295869 Z" id="Shape" fill-rule="nonzero"></path>
                <path d="M267.386834,77.3370246 C273.243075,79.0458166 279.550591,77.0339889 283.336176,72.2498674 C287.12176,67.4657459 287.629812,60.8642379 284.620849,55.557131 C281.611886,50.2500241 275.686495,47.2966132 269.637758,48.0890631 C263.589021,48.881513 258.624263,53.2616512 257.083747,59.1647891 C255.035801,67.0123596 259.601608,75.0653741 267.386834,77.3370246 Z" id="Shape" fill-rule="nonzero"></path>
                <path d="M179.404344,90.6111266 C185.302544,89.0911676 189.692835,84.1573212 190.511149,78.1292049 C191.329463,72.1010886 188.412995,66.1780047 183.132905,63.1446547 C177.852815,60.1113047 171.259584,60.571178 166.452979,64.3080678 C161.646374,68.0449576 159.582676,74.3154045 161.23212,80.1713965 C162.249985,83.9659087 164.738555,87.1996669 168.148211,89.1584745 C171.557867,91.1172821 175.608084,91.6399799 179.404344,90.6111266 Z" id="Shape" fill-rule="nonzero"></path>
                <path d="M108.365265,126.81763 C104.119975,122.458222 97.6657567,121.111098 92.0391189,123.410039 C86.4124812,125.708979 82.7338129,131.196213 82.7338129,137.290168 C82.7338129,143.384123 86.4124812,148.871357 92.0391189,151.170297 C97.6657567,153.469237 104.119975,152.122114 108.365265,147.762706 C111.146074,144.991463 112.709832,141.222038 112.709832,137.290168 C112.709832,133.358298 111.146074,129.588872 108.365265,126.81763 Z" id="Shape" fill-rule="nonzero"></path>
                <path d="M66.9710542,213.980129 C61.1059771,212.345529 54.8349699,214.422124 51.1043613,219.234261 C47.3737527,224.046397 46.9251438,230.637479 49.969306,235.910795 C53.0134681,241.184112 58.9452579,244.09139 64.9777221,243.266693 C71.0101864,242.441997 75.9441424,238.049265 77.4614528,232.152351 C79.4950611,224.248884 74.8318514,216.170937 66.9710542,213.980129 Z" id="Shape" fill-rule="nonzero"></path>
                <path d="M73.6030446,311.027756 C67.7061305,312.545066 63.3133991,317.479022 62.4887025,323.511486 C61.664006,329.543951 64.5712841,335.475741 69.8446006,338.519903 C75.117917,341.564065 81.7089987,341.115456 86.5211351,337.384847 C91.3332714,333.654239 93.4098666,327.383231 91.7752668,321.518154 C89.5844588,313.657357 81.506512,308.994148 73.6030446,311.027756 Z" id="Shape" fill-rule="nonzero"></path>
                <path d="M147.993748,390.58786 C143.731185,386.239314 137.261247,384.901881 131.623817,387.203951 C125.986386,389.506021 122.302158,394.989954 122.302158,401.079137 C122.302158,407.16832 125.986386,412.652252 131.623817,414.954322 C137.261247,417.256392 143.731185,415.91896 147.993748,411.570413 C153.706321,405.742606 153.706321,396.415667 147.993748,390.58786 Z" id="Shape" fill-rule="nonzero"></path>
                <path d="M232.43868,422.613222 C226.573603,420.978623 220.302596,423.055218 216.571987,427.867354 C212.841379,432.679491 212.39277,439.270572 215.436932,444.543889 C218.481094,449.817205 224.412884,452.724483 230.445348,451.899787 C236.477812,451.07509 241.411768,446.682359 242.929079,440.785445 C244.962687,432.881977 240.299477,424.80403 232.43868,422.613222 Z" id="Shape" fill-rule="nonzero"></path>
                <path d="M321.794696,408.152566 C315.896497,409.674447 311.506206,414.614535 310.687892,420.650277 C309.869578,426.686019 312.786045,432.616595 318.066136,435.653783 C323.346226,438.69097 329.939457,438.230515 334.746062,434.488898 C339.552667,430.747281 341.616365,424.468902 339.966921,418.605502 C337.759841,410.759831 329.686932,406.116173 321.794696,408.152566 Z" id="Shape" fill-rule="nonzero"></path>
                <path d="M412.769454,373.413412 C417.118,369.15085 418.455433,362.680911 416.153363,357.043481 C413.851293,351.40605 408.367361,347.721823 402.278177,347.721823 C396.188994,347.721823 390.705062,351.40605 388.402992,357.043481 C386.100922,362.680911 387.438354,369.15085 391.786901,373.413412 C397.614708,379.125985 406.941647,379.125985 412.769454,373.413412 Z" id="Shape" fill-rule="nonzero"></path>
                <path d="M487.075586,295.54998 C477.801721,293.088853 468.287259,298.605863 465.817745,307.876448 C463.348232,317.147033 468.857615,326.665142 478.127174,329.142438 C487.396732,331.619734 496.920803,326.119325 499.406484,316.853061 C500.602928,312.392888 499.975171,307.640001 497.661751,303.643294 C495.348331,299.646588 491.539418,296.734605 487.075586,295.54998 Z" id="Shape" fill-rule="nonzero"></path>
                <path d="M487.081534,204.443812 C493.879778,202.636563 498.918786,196.91155 499.847339,189.940084 C500.775892,182.968617 497.41098,176.124721 491.322682,172.601778 C485.234383,169.078835 477.622657,169.571192 472.039158,173.849114 C466.455659,178.127035 464.000854,185.347374 465.820163,192.141098 C467.002469,196.594727 469.90875,200.394934 473.897631,202.703067 C477.886512,205.011199 482.630094,205.637521 487.081534,204.443812 Z" id="Shape" fill-rule="nonzero"></path>
                <path d="M407.989751,92.0497875 C414.785197,98.8234131 425.783293,98.8116226 432.5642,92.0234423 C439.345107,85.2352621 439.345107,74.2371599 432.5642,67.4489797 C425.783293,60.6607995 414.785197,60.649009 407.989751,67.4226346 C404.717126,70.6847518 402.877698,75.1154441 402.877698,79.736211 C402.877698,84.356978 404.717126,88.7876702 407.989751,92.0497875 Z" id="Shape" fill-rule="nonzero"></path>
                <path d="M307.853242,34.1768232 C317.125282,36.6582658 326.654071,31.156341 329.139156,21.886332 C331.62424,12.6163231 326.125071,3.08672315 316.85482,0.598606768 C307.584569,-1.88950961 298.051821,3.60555453 295.560062,12.8737722 C294.362329,17.3288012 294.984934,22.0771718 297.290735,26.0729304 C299.596535,30.068689 303.396376,32.9840481 307.853242,34.1768232 Z" id="Shape" fill-rule="nonzero"></path>
                <path d="M192.197358,34.1666551 C201.45453,31.6570516 206.929657,22.1225231 204.431905,12.8610964 C201.934154,3.59966969 192.407627,-1.88801222 183.144227,0.598494359 C173.880827,3.08500094 168.381942,12.6058439 170.856591,21.8734716 C172.048915,26.3387571 174.97008,30.145376 178.974549,32.4521191 C182.979017,34.7588622 187.737111,35.3758206 192.197358,34.1666551 Z" id="Shape" fill-rule="nonzero"></path>
                <path d="M67.4354927,92.0227741 C72.4063441,96.9990602 79.8859419,98.490073 86.3850739,95.800259 C92.8842059,93.110445 97.1223022,86.7697974 97.1223022,79.736211 C97.1223022,72.7026247 92.8842059,66.3619771 86.3850739,63.6721631 C79.8859419,60.9823491 72.4063441,62.4733619 67.4354927,67.449648 C60.6549956,74.2375583 60.6549956,85.2348637 67.4354927,92.0227741 Z" id="Shape" fill-rule="nonzero"></path>
                <path d="M21.8773093,170.856134 C15.0835854,169.036826 7.86324614,171.491631 3.58532473,177.075129 C-0.692596672,182.658628 -1.1849537,190.270355 2.337989,196.358653 C5.8609317,202.446951 12.7048283,205.811863 19.6762949,204.88331 C26.6477615,203.954757 32.3727738,198.91575 34.1800229,192.117505 C35.3737323,187.666065 34.7474104,182.922484 32.4392778,178.933602 C30.1311452,174.944721 26.3309383,172.03844 21.8773093,170.856134 Z" id="Shape" fill-rule="nonzero"></path>
                <path d="M12.8737722,295.568471 C3.60555453,298.059616 -1.88950961,307.590019 0.598606768,316.857989 C3.08672315,326.12596 12.6163231,331.623776 21.886332,329.139303 C31.156341,326.65483 36.6582658,317.128385 34.1768232,307.858626 C32.9929674,303.397283 30.0792134,299.591893 26.0807791,297.285116 C22.0823449,294.97834 17.329163,294.360522 12.8737722,295.568471 Z" id="Shape" fill-rule="nonzero"></path>
                <path d="M92.0291373,407.969069 C85.2391846,401.180107 74.2313816,401.180642 67.4420892,407.970265 C60.6527968,414.759887 60.6527968,425.76769 67.4420892,432.557313 C74.2313816,439.346936 85.2391846,439.347471 92.0291373,432.558509 C95.2902104,429.297911 97.1223022,424.875306 97.1223022,420.263789 C97.1223022,415.652272 95.2902104,411.229667 92.0291373,407.969069 Z" id="Shape" fill-rule="nonzero"></path>
                <path d="M192.111558,465.813769 C182.837692,463.352642 173.32323,468.869652 170.853716,478.140237 C168.384203,487.410822 173.893586,496.928931 183.163145,499.406227 C192.432703,501.883523 201.956775,496.383114 204.442455,487.11685 C205.638899,482.656677 205.011143,477.90379 202.697722,473.907083 C200.384302,469.910377 196.575389,466.998394 192.111558,465.813769 Z" id="Shape" fill-rule="nonzero"></path>
                <path d="M307.837801,465.823851 C298.569583,468.31561 293.074519,477.848358 295.562636,487.118609 C298.050752,496.38886 307.580352,501.888029 316.850361,499.402945 C326.12037,496.91786 331.622295,487.389071 329.140852,478.117031 C327.948077,473.660165 325.032718,469.860324 321.036959,467.554524 C317.041201,465.248723 312.29283,464.626117 307.837801,465.823851 Z" id="Shape" fill-rule="nonzero"></path>
                <path d="M432.524384,407.950213 C425.732018,401.176587 414.738907,401.188377 407.961073,407.976558 C401.183239,414.764738 401.183239,425.76284 407.961073,432.55102 C414.738907,439.339201 425.732018,439.350991 432.524384,432.577365 C435.804841,429.320214 437.64988,424.887661 437.64988,420.263789 C437.64988,415.639917 435.804841,411.207364 432.524384,407.950213 Z" id="Shape" fill-rule="nonzero"></path>
                <path d="M302.158273,260.738468 C298.099348,264.835725 294.341084,268.857107 290.282158,272.612926 C287.220068,275.425941 283.981222,278.036418 280.585836,280.428064 C275.792499,283.722071 269.684497,284.377086 264.312552,282.173192 C260.154605,280.810029 257.152083,277.143407 256.60811,272.764676 C250.745217,277.544809 245.333317,283.121631 237.215466,283.463069 C236.538978,286.611887 235.862491,289.874517 235.186003,293.137148 C234.804265,294.54526 234.515497,295.977386 234.321602,297.424093 C234.321602,299.510659 233.194123,300.345285 231.16466,300.762598 C226.166169,301.786913 215.37995,304.556355 214.628297,304.556355 C220.603938,276.065244 226.541995,247.650008 232.517636,219.538273 L250.63247,219.538273 C249.692903,224.128718 241.274391,264.6081 241.199226,265.06335 C240.710652,269.881421 243.754846,272.650863 248.415094,271.323049 C251.07101,270.275186 253.594201,268.912531 255.931622,267.263729 C256.307449,267.036104 256.420197,266.31529 256.532945,265.784164 C259.727469,250.609138 262.846829,235.6238 266.003771,220.562587 C266.094961,220.172597 266.220744,219.791684 266.379597,219.42446 L284.419266,219.42446 C283.442117,224.090781 277.316146,253.871769 275.173936,264.266662 C275.097984,265.099527 275.097984,265.937675 275.173936,266.770541 C275.011787,268.986211 276.567955,270.953925 278.744287,271.285111 C280.75495,271.917946 282.936399,271.670216 284.75751,270.602235 C286.716946,269.463681 288.600136,268.196365 290.394906,266.808478 C292.342402,265.359176 294.176813,263.761103 295.881972,262.028345 C297.608001,260.522785 299.986501,260.033966 302.158273,260.738468 Z" id="Shape"></path>
            </g>
        </g>
    </g>
</svg>