<?xml version="1.0" encoding="UTF-8"?>
<svg width="130px" height="130px" viewBox="0 0 130 130" version="1.1" xmlns="http://www.w3.org/2000/svg" xmlns:xlink="http://www.w3.org/1999/xlink">
    <!-- Generator: Sketch 49.3 (51167) - http://www.bohemiancoding.com/sketch -->
    <title>micronaut_logo</title>
    <desc>Created with Sketch.</desc>
    <defs></defs>
    <g id="Page-1" stroke="none" stroke-width="1" fill="none" fill-rule="evenodd">
        <g id="micronaut_logo">
            <path d="M65,0.084 C29.148,0.084 0.083,29.145 0.083,64.999 C0.083,100.852 29.149,129.916 65,129.916 C100.854,129.916 129.918,100.852 129.918,64.999 C129.918,29.145 100.854,0.084 65,0.084 Z" id="Shape" fill="#000000" fill-rule="nonzero"></path>
            <g id="Group" transform="translate(18.000000, 18.000000)" fill="#FFFFFF">
                <path d="M64.6829526,48.6904088 C65.3947576,48.8818018 66.1517547,48.6255142 66.6009359,48.0410598 C67.0501171,47.4566053 67.1030172,46.6590911 66.7349674,46.0204193 C66.3669176,45.3817475 65.6504046,45.0277031 64.9195575,45.1233866 C64.1887104,45.2190701 63.587468,45.7456367 63.3962058,46.4575344 C63.1350801,47.4294706 63.711143,48.4291047 64.6829526,48.6904088 Z" id="Shape" fill-rule="nonzero"></path>
                <path d="M62.8949836,39.8052331 C63.6068812,39.6139708 64.1334479,39.0127285 64.2291314,38.2818814 C64.3248149,37.5510343 63.9707705,36.8345212 63.3320987,36.4664714 C62.6934269,36.0984217 61.8959127,36.1513217 61.3114582,36.600503 C60.7270038,37.0496842 60.4707162,37.8066813 60.6621092,38.5184862 C60.9234133,39.4902959 61.9230473,40.0663587 62.8949836,39.8052331 Z" id="Shape" fill-rule="nonzero"></path>
                <path d="M54.5249602,30.6074105 C53.8145597,31.31964 53.815548,32.4727576 54.5271683,33.1837684 C55.2387887,33.8947791 56.3919068,33.8947791 57.1035271,33.1837684 C57.8151475,32.4727576 57.8161358,31.31964 57.1057353,30.6074105 C56.7638086,30.2646036 56.2995279,30.0719424 55.8153477,30.0719424 C55.3311676,30.0719424 54.8668868,30.2646036 54.5249602,30.6074105 Z" id="Shape" fill-rule="nonzero"></path>
                <path d="M47.4043638,28.0841715 C46.6922533,27.8927785 45.9349312,28.1490661 45.4855571,28.7335206 C45.036183,29.317975 44.9832603,30.1154893 45.351468,30.7541611 C45.7196758,31.3928329 46.4364965,31.7468772 47.1676574,31.6511937 C47.8988182,31.5555103 48.5003188,31.0289436 48.6916631,30.3170459 C48.9488064,29.3456495 48.3740708,28.3487466 47.4043638,28.0841715 Z" id="Shape" fill-rule="nonzero"></path>
                <path d="M38.7463025,34.1097895 C39.4582002,33.9185272 39.9847669,33.3172848 40.0804503,32.5864377 C40.1761338,31.8555906 39.8220895,31.1390776 39.1834177,30.7710278 C38.5447459,30.402978 37.7472316,30.4558781 37.1627772,30.9050593 C36.5783227,31.3542405 36.3220351,32.1112376 36.5134281,32.8230426 C36.7747323,33.7948522 37.7743663,34.3709151 38.7463025,34.1097895 Z" id="Shape" fill-rule="nonzero"></path>
                <path d="M30.6040969,37.9000615 C29.8936964,38.6117223 29.8946847,39.7639191 30.606305,40.474362 C31.3179254,41.184805 32.4710434,41.184805 33.1826638,40.474362 C33.8942842,39.7639191 33.8952725,38.6117223 33.1848719,37.9000615 C32.8438633,37.5558082 32.3792387,37.3621103 31.8944844,37.3621103 C31.4097301,37.3621103 30.9451055,37.5558082 30.6040969,37.9000615 Z" id="Shape" fill-rule="nonzero"></path>
                <path d="M30.3180329,46.3095912 C29.6059223,46.1181982 28.8486002,46.3744858 28.3992262,46.9589402 C27.9498521,47.5433947 27.8969293,48.3409089 28.2651371,48.9795807 C28.6333449,49.6182525 29.3501656,49.9722969 30.0813264,49.8766134 C30.8124873,49.7809299 31.4139878,49.2543633 31.6053322,48.5424656 C31.8624754,47.5710691 31.2877398,46.5741663 30.3180329,46.3095912 Z" id="Shape" fill-rule="nonzero"></path>
                <path d="M32.1050164,54.9680637 C31.3931188,55.1592664 30.8665521,55.7603217 30.7708686,56.4909414 C30.6751851,57.2215611 31.0292295,57.9378513 31.6679013,58.3057866 C32.3065731,58.6737218 33.1040873,58.6208382 33.6885418,58.1717967 C34.2729962,57.7227553 34.5292838,56.9659937 34.3378908,56.2544102 C34.2140534,55.7868427 33.9086175,55.3880346 33.4893884,55.146519 C33.0701593,54.9050034 32.5718262,54.8407648 32.1050164,54.9680637 Z" id="Shape" fill-rule="nonzero"></path>
                <path d="M40.4715237,64.3911124 C40.9938196,63.8711041 41.1506885,63.0880409 40.8689041,62.4074563 C40.5871197,61.7268716 39.9222487,61.2829736 39.1846523,61.2829736 C38.4470559,61.2829736 37.7821848,61.7268716 37.5004005,62.4074563 C37.2186161,63.0880409 37.375485,63.8711041 37.8977809,64.3911124 C38.237585,64.7346789 38.7010466,64.9280576 39.1846523,64.9280576 C39.6682579,64.9280576 40.1317195,64.7346789 40.4715237,64.3911124 Z" id="Shape" fill-rule="nonzero"></path>
                <path d="M47.5987219,66.9166485 C48.3122196,67.1070855 49.0701623,66.8484154 49.5182112,66.2615667 C49.96626,65.674718 50.0158971,64.8756304 49.643917,64.2378779 C49.2719369,63.6001254 48.5518293,63.2497044 47.8202449,63.350437 C47.0886605,63.4511696 46.4901335,63.9831547 46.3044757,64.6976889 C46.0566051,65.6666552 46.6330803,66.6550106 47.5987219,66.9166485 Z" id="Shape" fill-rule="nonzero"></path>
                <path d="M56.2536975,60.6608549 C55.5417998,60.8521992 55.0152331,61.4536998 54.9195497,62.1848606 C54.8238662,62.9160215 55.1779105,63.6328421 55.8165823,64.0010499 C56.4552541,64.3692577 57.2527684,64.3163349 57.8372228,63.8669609 C58.4216773,63.4175868 58.6779649,62.6602647 58.4865719,61.9481542 C58.2219968,60.9784472 57.2250939,60.4037116 56.2536975,60.6608549 Z" id="Shape" fill-rule="nonzero"></path>
                <path d="M64.3959031,57.1048765 C65.1063036,56.3920847 65.1053153,55.2380568 64.393695,54.5264848 C63.6820746,53.8149128 62.5289566,53.8149128 61.8173362,54.5264848 C61.1057158,55.2380568 61.1047275,56.3920847 61.8151281,57.1048765 C62.5288387,57.8155608 63.6821925,57.8155608 64.3959031,57.1048765 Z" id="Shape" fill-rule="nonzero"></path>
                <path d="M74.7150275,45.4097213 C73.8696209,45.182945 72.9708652,45.4878248 72.4378766,46.1821863 C71.9048881,46.8765478 71.8426383,47.8236371 72.2801563,48.5817985 C72.7176742,49.33996 73.5687911,49.7598744 74.436606,49.6457233 C75.3044209,49.5315721 76.0180185,48.9058374 76.2446271,48.0603177 C76.554006,46.9059665 75.8692242,45.7193291 74.7150275,45.4097213 Z" id="Shape" fill-rule="nonzero"></path>
                <path d="M71.06991,36.3765216 C71.9154297,36.1499129 72.5411644,35.4363154 72.6553156,34.5685005 C72.7694667,33.7006856 72.3495523,32.8495687 71.5913909,32.4120508 C70.8332294,31.9745328 69.8861401,32.0367826 69.1917786,32.5697711 C68.4974171,33.1027597 68.1925373,34.0015154 68.4193136,34.846922 C68.7289215,36.0011187 69.9155588,36.6859005 71.06991,36.3765216 Z" id="Shape" fill-rule="nonzero"></path>
                <path d="M59.4103017,26.0201553 C60.0291499,26.6394517 60.9601682,26.8249107 61.7691001,26.4900285 C62.5780321,26.1551462 63.1055156,25.3658953 63.1055156,24.4904077 C63.1055156,23.61492 62.5780321,22.8256692 61.7691001,22.4907869 C60.9601682,22.1559046 60.0291499,22.3413637 59.4103017,22.9606601 C58.5658707,23.8057027 58.5658707,25.1751127 59.4103017,26.0201553 Z" id="Shape" fill-rule="nonzero"></path>
                <path d="M46.9396488,22.9356024 C47.7850554,23.1623788 48.6838111,22.857499 49.2167996,22.1631375 C49.7497882,21.468776 49.8120379,20.5216867 49.37452,19.7635252 C48.937002,19.0053637 48.0858852,18.5854493 47.2180703,18.6996005 C46.3502553,18.8137516 45.6366578,19.4394863 45.4100492,20.2850061 C45.1006703,21.4393572 45.785452,22.6259946 46.9396488,22.9356024 Z" id="Shape" fill-rule="nonzero"></path>
                <path d="M33.7262531,22.3988988 C32.8807333,22.6255905 32.2549986,23.3394494 32.1408475,24.2075821 C32.0266963,25.0757148 32.4466107,25.9271433 33.2047722,26.3648215 C33.9629337,26.8024997 34.910023,26.7402272 35.6043845,26.2070434 C36.298746,25.6738597 36.6036258,24.7747748 36.3768494,23.9290586 C36.0639216,22.7769928 34.8800547,22.0935597 33.7262531,22.3988988 Z" id="Shape" fill-rule="nonzero"></path>
                <path d="M22.9594624,35.5885006 C23.5783105,36.207797 24.5093289,36.3932561 25.3182608,36.0583738 C26.1271927,35.7234915 26.6546763,34.9342406 26.6546763,34.058753 C26.6546763,33.1832654 26.1271927,32.3940145 25.3182608,32.0591322 C24.5093289,31.7242499 23.5783105,31.909709 22.9594624,32.5290054 C22.1150313,33.374048 22.1150313,34.743458 22.9594624,35.5885006 Z" id="Shape" fill-rule="nonzero"></path>
                <path d="M20.5117924,49.5902787 C21.3575087,49.817055 22.2565935,49.5121752 22.7897772,48.8178137 C23.322961,48.1234522 23.3852335,47.1763629 22.9475553,46.4182015 C22.5098772,45.66004 21.6584486,45.2401256 20.7903159,45.3542767 C19.9221832,45.4684279 19.2083243,46.0941626 18.9816327,46.9396823 C18.6762935,48.093484 19.3597267,49.2773508 20.5117924,49.5902787 Z" id="Shape" fill-rule="nonzero"></path>
                <path d="M23.93009,58.6234784 C23.0845703,58.8500871 22.4588356,59.5636846 22.3446844,60.4314995 C22.2305333,61.2993144 22.6504477,62.1504313 23.4086091,62.5879492 C24.1667706,63.0254672 25.1138599,62.9632174 25.8082214,62.4302289 C26.5025829,61.8972403 26.8074627,60.9984846 26.5806864,60.153078 C26.2710785,58.9988813 25.0844412,58.3140995 23.93009,58.6234784 Z" id="Shape" fill-rule="nonzero"></path>
                <path d="M35.8139857,68.976275 C34.9679277,68.1334738 33.5991066,68.1352335 32.7552183,68.9802074 C31.9113301,69.8251812 31.9113301,71.1940034 32.7552183,72.0389773 C33.5991066,72.8839511 34.9679277,72.8857109 35.8139857,72.0429096 C36.2216715,71.6367932 36.4508393,71.0850384 36.4508393,70.5095923 C36.4508393,69.9341462 36.2216715,69.3823914 35.8139857,68.976275 Z" id="Shape" fill-rule="nonzero"></path>
                <path d="M48.0603512,71.8365798 C47.2149446,71.6098035 46.3161889,71.9146833 45.7832004,72.6090448 C45.2502118,73.3034063 45.1879621,74.2504956 45.62548,75.0086571 C46.062998,75.7668185 46.9141148,76.1867329 47.7819297,76.0725818 C48.6497447,75.9584306 49.3633422,75.3326959 49.5899508,74.4871762 C49.8993297,73.332825 49.214548,72.1461877 48.0603512,71.8365798 Z" id="Shape" fill-rule="nonzero"></path>
                <path d="M61.2801821,72.5993477 C62.4324184,72.2865043 63.1135964,71.0991451 62.8023356,69.9460867 C62.4910748,68.7930284 61.3050212,68.1100881 60.1519923,68.4199953 C58.9989634,68.7299025 58.3147652,69.9155227 58.6230899,71.0693702 C58.9358692,72.2248055 60.1243359,72.9091353 61.2801821,72.5993477 Z" id="Shape" fill-rule="nonzero"></path>
                <path d="M72.0430152,59.1836816 C71.4237521,58.5643853 70.4921095,58.3789262 69.6826352,58.7138085 C68.8731609,59.0486908 68.3453237,59.8379416 68.3453237,60.7134293 C68.3453237,61.5889169 68.8731609,62.3781678 69.6826352,62.71305 C70.4921095,63.0479323 71.4237521,62.8624732 72.0430152,62.2431769 C72.8841428,61.396537 72.8841428,60.0303215 72.0430152,59.1836816 Z" id="Shape" fill-rule="nonzero"></path>
                <path d="M82.5033174,54.3437755 C83.6176821,54.6543495 84.8091735,54.2597964 85.5179891,53.3454905 C86.2268047,52.4311846 86.3120404,51.1788791 85.7336496,50.1769489 C85.1552588,49.1750188 84.0282187,48.622636 82.8820505,48.7793283 C81.7358823,48.9360206 80.7984307,49.7706396 80.5101417,50.8910533 C80.1237561,52.3927121 81.009766,53.927522 82.5033174,54.3437755 Z" id="Shape" fill-rule="nonzero"></path>
                <path d="M83.0625233,32.4359563 C82.7733658,31.3152984 81.8347491,30.4811431 80.6879582,30.3256634 C79.5411672,30.1701838 78.4143577,30.7243127 77.8372921,31.7275298 C77.2602265,32.7307469 77.347713,33.9834609 78.0586202,34.8967158 C78.7695274,35.8099708 79.9624194,36.2020734 81.0764654,35.888679 C82.5671428,35.4693338 83.4494379,33.9354811 83.0625233,32.4359563 Z" id="Shape" fill-rule="nonzero"></path>
                <path d="M70.9485483,16.8016215 C70.1386614,15.9753977 68.9093732,15.7212854 67.8382613,16.1586788 C66.7671495,16.5960721 66.0671463,17.6380192 66.0671463,18.794964 C66.0671463,19.9519088 66.7671495,20.9938559 67.8382613,21.4312493 C68.9093732,21.8686426 70.1386614,21.6145304 70.9485483,20.7883066 C72.0339371,19.6810233 72.0339371,17.9089048 70.9485483,16.8016215 Z" id="Shape" fill-rule="nonzero"></path>
                <path d="M50.8034985,14.6940347 C51.9161843,15.0187051 53.1146124,14.6364579 53.8338734,13.7274748 C54.5531344,12.8184917 54.6496643,11.5642052 54.0779613,10.5558549 C53.5062583,9.54750457 52.380434,8.9863565 51.231174,9.13692198 C50.0819141,9.28748746 49.13861,10.1197137 48.845912,11.2413099 C48.4568023,12.7323483 49.3243055,14.2624211 50.8034985,14.6940347 Z" id="Shape" fill-rule="nonzero"></path>
                <path d="M34.0868254,17.2161141 C35.2074834,16.9273218 36.0416387,15.989891 36.1971183,14.8445489 C36.352598,13.6992068 35.7984691,12.5738209 34.795252,11.9974844 C33.7920348,11.4211479 32.5393209,11.5085238 31.626066,12.2185329 C30.712811,12.9285419 30.3207084,14.1199269 30.6341028,15.2325653 C30.8274972,15.9535227 31.3003254,16.5679367 31.9481601,16.9401102 C32.5959948,17.3122836 33.365536,17.4115962 34.0868254,17.2161141 Z" id="Shape" fill-rule="nonzero"></path>
                <path d="M20.5894004,24.0953497 C19.7827952,23.2670622 18.5564938,23.0111087 17.4874326,23.4479073 C16.4183714,23.884706 15.7194245,24.9272804 15.7194245,26.0851319 C15.7194245,27.2429834 16.4183714,28.2855578 17.4874326,28.7223565 C18.5564938,29.1591551 19.7827952,28.9032016 20.5894004,28.0749141 C21.117754,27.548378 21.4148681,26.8321872 21.4148681,26.0851319 C21.4148681,25.3380765 21.117754,24.6218857 20.5894004,24.0953497 Z" id="Shape" fill-rule="nonzero"></path>
                <path d="M12.7245003,40.6562245 C11.6101357,40.3456505 10.4186443,40.7402036 9.70982865,41.6545095 C9.00101302,42.5688154 8.91577732,43.8211209 9.49416813,44.8230511 C10.0725589,45.8249812 11.199599,46.377364 12.3457672,46.2206717 C13.4919354,46.0639794 14.4293871,45.2293604 14.717676,44.1089467 C15.1040616,42.6072879 14.2180518,41.072478 12.7245003,40.6562245 Z" id="Shape" fill-rule="nonzero"></path>
                <path d="M13.9845785,59.0952736 C12.8641648,59.3835626 12.0295458,60.3210142 11.8728535,61.4671824 C11.7161611,62.6133506 12.268544,63.7403907 13.2704741,64.3187815 C14.2724042,64.8971723 15.5247097,64.8119366 16.4390157,64.103121 C17.3533216,63.3943054 17.7478747,62.202814 17.4373007,61.0884493 C17.0210472,59.5948979 15.4862373,58.708888 13.9845785,59.0952736 Z" id="Shape" fill-rule="nonzero"></path>
                <path d="M28.1188121,74.2116934 C27.3089252,73.3854696 26.079637,73.1313574 25.0085251,73.5687507 C23.9374133,74.0061441 23.2374101,75.0480912 23.2374101,76.205036 C23.2374101,77.3619808 23.9374133,78.4039279 25.0085251,78.8413212 C26.079637,79.2787146 27.3089252,79.0246023 28.1188121,78.1983785 C29.2042009,77.0910952 29.2042009,75.3189767 28.1188121,74.2116934 Z" id="Shape" fill-rule="nonzero"></path>
                <path d="M44.1633492,80.2965123 C43.0489846,79.9859383 41.8574932,80.3804914 41.1486776,81.2947973 C40.4398619,82.2091032 40.3546262,83.4614087 40.9330171,84.4633388 C41.5114079,85.465269 42.6384479,86.0176518 43.7846161,85.8609595 C44.9307843,85.7042671 45.868236,84.8696482 46.156525,83.7492345 C46.5429105,82.2475757 45.6569007,80.7127658 44.1633492,80.2965123 Z" id="Shape" fill-rule="nonzero"></path>
                <path d="M61.1409923,77.5489875 C60.0203344,77.838145 59.1861791,78.7767617 59.0306994,79.9235526 C58.8752197,81.0703436 59.4293486,82.1971531 60.4325658,82.7742187 C61.4357829,83.3512843 62.6884968,83.2637978 63.6017518,82.5528906 C64.5150067,81.8419834 64.9071093,80.6490913 64.593715,79.5350454 C64.1743697,78.044368 62.6405171,77.1620729 61.1409923,77.5489875 Z" id="Shape" fill-rule="nonzero"></path>
                <path d="M78.4261962,70.9485483 C79.2524201,70.1386614 79.5065323,68.9093732 79.069139,67.8382613 C78.6317456,66.7671495 77.5897985,66.0671463 76.4328537,66.0671463 C75.2759089,66.0671463 74.2339618,66.7671495 73.7965685,67.8382613 C73.3591751,68.9093732 73.6132873,70.1386614 74.4395112,70.9485483 C75.5467945,72.0339371 77.318913,72.0339371 78.4261962,70.9485483 Z" id="Shape" fill-rule="nonzero"></path>
                <path d="M92.5443614,56.1544961 C90.7823269,55.6868821 88.9745791,56.7351139 88.5053716,58.4965251 C88.0361641,60.2579362 89.0829468,62.066377 90.844163,62.5370632 C92.6053791,63.0077495 94.4149526,61.9626718 94.887232,60.2020816 C95.1145563,59.3546487 94.9952826,58.4516001 94.5557327,57.6922259 C94.1161829,56.9328516 93.3924895,56.3795749 92.5443614,56.1544961 Z" id="Shape" fill-rule="nonzero"></path>
                <path d="M92.5454914,38.8443243 C93.8371579,38.5009469 94.7945693,37.4131946 94.9709944,36.0886159 C95.1474195,34.7640373 94.5080862,33.4636969 93.3513095,32.7943378 C92.1945328,32.1249787 90.7483048,32.2185265 89.68744,33.0313316 C88.6265753,33.8441367 88.1601623,35.2160011 88.505831,36.5068087 C88.7304691,37.3529982 89.2826625,38.0750375 90.0405499,38.5135827 C90.7984373,38.9521279 91.6997178,39.071129 92.5454914,38.8443243 Z" id="Shape" fill-rule="nonzero"></path>
                <path d="M77.5180528,17.4894596 C78.8091875,18.7764485 80.8988257,18.7742083 82.187198,17.484454 C83.4755703,16.1946998 83.4755703,14.1050604 82.187198,12.8153061 C80.8988257,11.5255519 78.8091875,11.5233117 77.5180528,12.8103006 C76.8962539,13.4301028 76.5467626,14.2719344 76.5467626,15.1498801 C76.5467626,16.0278258 76.8962539,16.8696573 77.5180528,17.4894596 Z" id="Shape" fill-rule="nonzero"></path>
                <path d="M58.492116,6.4935964 C60.2538037,6.9650705 62.0642736,5.91970479 62.5364396,4.15840309 C63.0086057,2.39710138 61.9637635,0.586477398 60.2024158,0.113735286 C58.441068,-0.359006827 56.6298459,0.68505536 56.1564118,2.44601673 C55.9288424,3.29247223 56.0471376,4.19466264 56.4852396,4.95385678 C56.9233416,5.71305091 57.6453114,6.26696914 58.492116,6.4935964 Z" id="Shape" fill-rule="nonzero"></path>
                <path d="M36.5174981,6.49166446 C38.2763607,6.01483981 39.3166348,4.20327939 38.842062,2.44360831 C38.3674893,0.683937241 36.5574492,-0.358722322 34.7974032,0.113713928 C33.0373571,0.586150179 31.992569,2.39511034 32.4627524,4.15595961 C32.6892939,5.00436385 33.2443152,5.72762144 34.0051642,6.16590263 C34.7660133,6.60418382 35.6700511,6.72140591 36.5174981,6.49166446 Z" id="Shape" fill-rule="nonzero"></path>
                <path d="M12.8127436,17.4843271 C13.7572054,18.4298214 15.178329,18.7131139 16.413164,18.2020492 C17.6479991,17.6909845 18.4532374,16.4862615 18.4532374,15.1498801 C18.4532374,13.8134987 17.6479991,12.6087756 16.413164,12.097711 C15.178329,11.5866463 13.7572054,11.8699388 12.8127436,12.8154331 C11.5244492,14.1051361 11.5244492,16.1946241 12.8127436,17.4843271 Z" id="Shape" fill-rule="nonzero"></path>
                <path d="M4.15668876,32.4626655 C2.86588122,32.1169969 1.49401677,32.5834098 0.681211699,33.6442746 C-0.131593368,34.7051393 -0.225141203,36.1513674 0.44421791,37.3081441 C1.11357702,38.4649207 2.41391738,39.104254 3.73849603,38.9278289 C5.06307468,38.7514038 6.15082703,37.7939924 6.49420436,36.502326 C6.72100913,35.6565523 6.60200798,34.7552719 6.16346278,33.9973844 C5.72491759,33.239497 5.00287828,32.6873036 4.15668876,32.4626655 Z" id="Shape" fill-rule="nonzero"></path>
                <path d="M2.44601673,56.1580095 C0.68505536,56.6313271 -0.359006827,58.4421036 0.113735286,60.2030179 C0.586477398,61.9639323 2.39710138,63.0085174 4.15840309,62.5364675 C5.91970479,62.0644176 6.9650705,60.2543932 6.4935964,58.493139 C6.26866382,57.6454838 5.71505054,56.9224597 4.95534803,56.4841721 C4.19564553,56.0458846 3.29254096,55.9284991 2.44601673,56.1580095 Z" id="Shape" fill-rule="nonzero"></path>
                <path d="M17.4855361,77.5141232 C16.1954451,76.2242204 14.1039625,76.2243221 12.813997,77.5143503 C11.5240314,78.8043786 11.5240314,80.8958612 12.813997,82.1858895 C14.1039625,83.4759178 16.1954451,83.4760195 17.4855361,82.1861166 C18.10514,81.5666031 18.4532374,80.7263082 18.4532374,79.8501199 C18.4532374,78.9739316 18.10514,78.1336367 17.4855361,77.5141232 Z" id="Shape" fill-rule="nonzero"></path>
                <path d="M36.501196,88.504616 C34.7391615,88.037002 32.9314137,89.0852338 32.4622061,90.846645 C31.9929986,92.6080561 33.0397814,94.4164969 34.8009975,94.8871831 C36.5622136,95.3578694 38.3717872,94.3127917 38.8440665,92.5522015 C39.0713909,91.7047686 38.9521171,90.80172 38.5125673,90.0423458 C38.0730174,89.2829715 37.349324,88.7296948 36.501196,88.504616 Z" id="Shape" fill-rule="nonzero"></path>
                <path d="M58.4891822,88.5065317 C56.7282208,88.9799658 55.6841586,90.7911879 56.1569008,92.5525357 C56.6296429,94.3138834 58.4402668,95.3587256 60.2015686,94.8865595 C61.9628703,94.4143935 63.008236,92.6039236 62.5367619,90.8422359 C62.3101346,89.9954313 61.7562164,89.2734615 60.9970222,88.8353595 C60.2378281,88.3972575 59.3356377,88.2789623 58.4891822,88.5065317 Z" id="Shape" fill-rule="nonzero"></path>
                <path d="M82.179633,77.5105404 C80.8890835,76.2235515 78.8003923,76.2257917 77.5126039,77.515546 C76.2248155,78.8053002 76.2248155,80.8949396 77.5126039,82.1846939 C78.8003923,83.4744481 80.8890835,83.4766883 82.179633,82.1896994 C82.8029198,81.5708406 83.1534772,80.7286556 83.1534772,79.8501199 C83.1534772,78.9715842 82.8029198,78.1293992 82.179633,77.5105404 Z" id="Shape" fill-rule="nonzero"></path>
                <path d="M57.4100719,49.5403089 C56.6388761,50.3187878 55.9248059,51.0828503 55.15361,51.7964559 C54.5718129,52.3309288 53.9564321,52.8269195 53.3113089,53.2813322 C52.4005749,53.9071935 51.2400544,54.0316464 50.2193848,53.6129065 C49.4293749,53.3539056 48.8588958,52.6572474 48.7555409,51.8252884 C47.6415913,52.7335137 46.6133302,53.7931099 45.0709385,53.8579831 C44.9424059,54.4562585 44.8138732,55.0761583 44.6853406,55.6960581 C44.6128103,55.9635993 44.5579445,56.2357034 44.5211045,56.5105776 C44.5211045,56.9070252 44.3068834,57.0656042 43.9212855,57.1448937 C42.9715721,57.3395134 40.9221905,57.8657074 40.7793765,57.8657074 C41.9147481,52.4523964 43.0429791,47.0535016 44.1783508,41.7122719 L47.6201692,41.7122719 C47.4416517,42.5844565 45.8421344,50.2755389 45.827853,50.3620366 C45.7350238,51.27747 46.3134207,51.803664 47.1988678,51.5513792 C47.7034919,51.3522854 48.1828981,51.0933809 48.6270082,50.7801085 C48.6984152,50.7368597 48.7198374,50.5999051 48.7412595,50.4989912 C49.3482191,47.6157363 49.9408974,44.7685221 50.5407164,41.9068916 C50.5580425,41.8327933 50.5819413,41.7604199 50.6121234,41.6906475 L54.0396605,41.6906475 C53.8540022,42.5772484 52.6900678,48.2356361 52.2830478,50.2106657 C52.268617,50.3689102 52.268617,50.5281583 52.2830478,50.6864027 C52.2522395,51.1073802 52.5479114,51.4812457 52.9614145,51.5441711 C53.3434404,51.6644098 53.7579157,51.617341 54.1039268,51.4144246 C54.4762197,51.1980994 54.8340259,50.9573093 55.1750322,50.6936109 C55.5450564,50.4182434 55.8935945,50.1146096 56.2175747,49.7853856 C56.5455202,49.4993292 56.9974352,49.4064536 57.4100719,49.5403089 Z" id="Shape"></path>
            </g>
        </g>
    </g>
</svg>