<?xml version="1.0" encoding="UTF-8"?>
<svg width="735px" height="712px" viewBox="0 0 735 712" version="1.1" xmlns="http://www.w3.org/2000/svg" xmlns:xlink="http://www.w3.org/1999/xlink">
    <!-- Generator: Sketch 49.3 (51167) - http://www.bohemiancoding.com/sketch -->
    <title>oci-micronaut-services</title>
    <desc>Created with Sketch.</desc>
    <defs>
        <polygon id="path-1" points="0.123692308 268 267.659846 268 267.659846 0.3484 0.123692308 0.3484"></polygon>
    </defs>
    <g id="Page-1" stroke="none" stroke-width="1" fill="none" fill-rule="evenodd">
        <g id="oci-grails-services">
            <g id="Plugin-Development" transform="translate(331.000000, 0.000000)">
                <circle id="Oval-2" fill="#7B7C81" fill-rule="nonzero" cx="115.5" cy="115.5" r="115.5"></circle>
                <g id="PLUG-IN-DEVELOPMENT" transform="translate(9.000000, 83.000000)" fill="#FFFFFF" font-family="OpenSans-Semibold, Open Sans" font-size="24" font-weight="500">
                    <text id="CUSTOM-FEATURE">
                        <tspan x="0" y="26">CUSTOM FEATURE </tspan>
                    </text>
                    <text id="DEVELOPMENT">
                        <tspan x="19.78125" y="59">DEVELOPMENT</tspan>
                    </text>
                </g>
            </g>
            <circle id="Oval-2" fill="#255AA8" fill-rule="nonzero" cx="619.5" cy="307.5" r="115.5"></circle>
            <g id="UPGRADE-SERVICES" transform="translate(529.000000, 275.000000)" fill="#FFFFFF" font-family="OpenSans-Semibold, Open Sans" font-size="24" font-weight="500">
                <text id="PROJECT">
                    <tspan x="41.3222656" y="26">PROJECT</tspan>
                </text>
                <text id="CONSULTATION">
                    <tspan x="0.177734375" y="59">CONSULTATION</tspan>
                </text>
            </g>
            <g id="Grails-Help-Desk" transform="translate(82.000000, 49.000000)">
                <circle id="Oval-2" fill="#66D8E0" fill-rule="nonzero" cx="115.5" cy="115.5" r="115.5"></circle>
                <g id="GRAILS-HELP-DESK" transform="translate(43.000000, 83.000000)" fill="#FFFFFF" font-family="OpenSans-Semibold, Open Sans" font-size="24" font-weight="500">
                    <text id="MICRONAUT">
                        <tspan x="0" y="26">MICRONAUT</tspan>
                    </text>
                    <text id="HELP-DESK">
                        <tspan x="10" y="59">HELP DESK</tspan>
                    </text>
                </g>
            </g>
            <g id="Training" transform="translate(169.000000, 481.000000)">
                <circle id="Oval-2" fill="#7B7C81" fill-rule="nonzero" cx="115.5" cy="115.5" r="115.5"></circle>
                <g id="TRAINING" transform="translate(54.000000, 99.000000)" fill="#FFFFFF" font-family="OpenSans-Semibold, Open Sans" font-size="24" font-weight="500">
                    <text>
                        <tspan x="0.3222656" y="26">TRAINING</tspan>
                    </text>
                </g>
            </g>
            <g id="Staff-Augmentation" transform="translate(417.000000, 430.000000)">
                <circle id="Oval-2" fill="#66D8E0" fill-rule="nonzero" cx="115.5" cy="115.5" r="115.5"></circle>
                <g id="STAFF-AUGMENTATION" transform="translate(20.000000, 83.000000)" fill="#FFFFFF" font-family="OpenSans-Semibold, Open Sans" font-size="24" font-weight="500">
                    <text id="STAFF">
                        <tspan x="66.3339844" y="26">STAFF</tspan>
                    </text>
                    <text id="AUGMENTATION">
                        <tspan x="0.4863281" y="59">AUGMENTATION</tspan>
                    </text>
                </g>
            </g>
            <g id="Project-Outsourcing" transform="translate(0.000000, 291.000000)">
                <circle id="Oval-2" fill="#255AA8" fill-rule="nonzero" cx="115.5" cy="115.5" r="115.5"></circle>
                <g id="PROJECT-OUTSOURCING" transform="translate(25.000000, 83.000000)" fill="#FFFFFF" font-family="OpenSans-Semibold, Open Sans" font-size="24" font-weight="500">
                    <text id="PROJECT">
                        <tspan x="39.546875" y="26">PROJECT</tspan>
                    </text>
                    <text id="OUTSOURCING">
                        <tspan x="0.21875" y="59">OUTSOURCING</tspan>
                    </text>
                </g>
            </g>
            <g id="1_Grails_RGB" transform="translate(230.000000, 221.000000)">
                <g id="Fill-1-Clipped">
                    <mask id="mask-2" fill="white">
                        <use xlink:href="#path-1"></use>
                    </mask>
                    <g id="path-1"></g>
                    <path d="M133.830954,0.3484 C59.9206769,0.3484 0,60.2587692 0,134.173169 C0,208.083446 59.9206769,268 133.830954,268 C207.743292,268 267.659846,208.083446 267.659846,134.173169 C267.659846,60.2587692 207.743292,0.3484 133.830954,0.3484 Z" id="Fill-1" fill="#000000" fill-rule="nonzero" mask="url(#mask-2)"></path>
                    <g id="Group" mask="url(#mask-2)" fill="#FFFFFF">
                        <g transform="translate(31.000000, 31.000000)" id="Shape">
                            <path d="M141.962059,106.862634 C143.524284,107.282691 145.185693,106.720207 146.171528,105.437484 C147.157362,104.15476 147.273464,102.404426 146.465692,101.00271 C145.657919,99.6009931 144.085362,98.823959 142.481345,99.033959 C140.877328,99.2439591 139.557759,100.399634 139.137988,101.962062 C138.564886,104.095207 139.829193,106.28914 141.962059,106.862634 Z" fill-rule="nonzero"></path>
                            <path d="M138.037938,86.8620116 C139.600366,86.4422413 140.756041,85.1226724 140.966041,83.5186554 C141.176041,81.9146384 140.399007,80.3420808 138.99729,79.5343084 C137.595574,78.726536 135.84524,78.8426377 134.562516,79.8284723 C133.279793,80.8143068 132.717309,82.4757163 133.137366,84.0379408 C133.71086,86.1708072 135.904793,87.4351136 138.037938,86.8620116 Z" fill-rule="nonzero"></path>
                            <path d="M119.167939,67.1752115 C117.608797,68.7383678 117.610966,71.2691576 119.172785,72.829639 C120.734605,74.3901203 123.265395,74.3901203 124.827215,72.829639 C126.389034,71.2691576 126.391203,68.7383678 124.832061,67.1752115 C124.081622,66.4228404 123.062648,66 122,66 C120.937352,66 119.918378,66.4228404 119.167939,67.1752115 Z" fill-rule="nonzero"></path>
                            <path d="M104.040104,61.137366 C102.477208,60.7173087 100.815086,61.2797925 99.8288279,62.5625162 C98.8425701,63.8452399 98.7264186,65.5955738 99.5345378,66.9972903 C100.342657,68.3990069 101.91589,69.176041 103.520595,68.966041 C105.125301,68.7560409 106.445436,67.6003657 106.865387,66.0379376 C107.429749,63.905978 106.168355,61.7180386 104.040104,61.137366 Z" fill-rule="nonzero"></path>
                            <path d="M85.0379376,74.8620116 C86.6003657,74.4422413 87.7560409,73.1226724 87.966041,71.5186554 C88.176041,69.9146384 87.3990069,68.3420808 85.9972903,67.5343084 C84.5955738,66.726536 82.8452399,66.8426377 81.5625162,67.8284723 C80.2797925,68.8143068 79.7173087,70.4757163 80.137366,72.0379408 C80.7108597,74.1708072 82.9047934,75.4351136 85.0379376,74.8620116 Z" fill-rule="nonzero"></path>
                            <path d="M67.1679389,83.1806614 C65.6087967,84.7425695 65.6109658,87.2713383 67.1727852,88.8305735 C68.7346047,90.3898088 71.2653953,90.3898088 72.8272148,88.8305735 C74.3890342,87.2713383 74.3912033,84.7425695 72.8320611,83.1806614 C72.0836368,82.4251159 71.0639081,82 70,82 C68.9360919,82 67.9163632,82.4251159 67.1679389,83.1806614 Z" fill-rule="nonzero"></path>
                            <path d="M66.0401037,101.137366 C64.4772085,100.717309 62.8150857,101.279793 61.8288279,102.562516 C60.8425701,103.84524 60.7264186,105.595574 61.5345378,106.99729 C62.342657,108.399007 63.9158898,109.176041 65.5205954,108.966041 C67.1253011,108.756041 68.4454364,107.600366 68.8653869,106.037938 C69.4297487,103.905978 68.1683553,101.718039 66.0401037,101.137366 Z" fill-rule="nonzero"></path>
                            <path d="M69.9620624,120.140434 C68.3996343,120.560074 67.2439591,121.879232 67.033959,123.48275 C66.823959,125.086268 67.6009931,126.658337 69.0027097,127.465858 C70.4044262,128.273379 72.1547601,128.157313 73.4374838,127.171785 C74.7202075,126.186258 75.2826913,124.525365 74.862634,122.963627 C74.5908434,121.937439 73.9204922,121.06216 73.0003946,120.532097 C72.080297,120.002034 70.9865871,119.861047 69.9620624,120.140434 Z" fill-rule="nonzero"></path>
                            <path d="M88.824344,140.821547 C89.9706461,139.680265 90.3149321,137.961648 89.6964895,136.467943 C89.078047,134.974239 87.61883,134 86,134 C84.38117,134 82.921953,134.974239 82.3035105,136.467943 C81.6850679,137.961648 82.0293539,139.680265 83.175656,140.821547 C83.9214366,141.575585 84.9386129,142 86,142 C87.0613871,142 88.0785634,141.575585 88.824344,140.821547 Z" fill-rule="nonzero"></path>
                            <path d="M103.966669,146.864434 C105.532608,147.282393 107.196093,146.71468 108.179442,145.426702 C109.162792,144.138723 109.271732,142.384936 108.455334,140.985237 C107.638935,139.585538 106.058488,138.816457 104.452853,139.037538 C102.847218,139.25862 101.533609,140.426187 101.126139,141.994401 C100.582128,144.121027 101.847339,146.290207 103.966669,146.864434 Z" fill-rule="nonzero"></path>
                            <path d="M122.962062,133.134613 C121.399634,133.554564 120.243959,134.874699 120.033959,136.479405 C119.823959,138.08411 120.600993,139.657343 122.00271,140.465462 C123.404426,141.273581 125.15476,141.15743 126.437484,140.171172 C127.720207,139.184914 128.282691,137.522792 127.862634,135.959896 C127.281961,133.831645 125.094022,132.570251 122.962062,133.134613 Z" fill-rule="nonzero"></path>
                            <path d="M140.832061,124.830176 C142.391203,123.265786 142.389034,120.732998 140.827215,119.171285 C139.265395,117.609572 136.734605,117.609572 135.172785,119.171285 C133.610966,120.732998 133.608797,123.265786 135.167939,124.830176 C136.734346,126.389941 139.265654,126.389941 140.832061,124.830176 Z" fill-rule="nonzero"></path>
                            <path d="M163.665096,99.1538416 C161.907306,98.6823227 160.038591,99.3162362 158.930388,100.75997 C157.822186,102.203703 157.692754,104.172914 158.602452,105.749302 C159.51215,107.32569 161.281813,108.198786 163.086195,107.96144 C164.890577,107.724094 166.374307,106.423051 166.845477,104.665026 C167.488745,102.264871 166.06493,99.7975858 163.665096,99.1538416 Z" fill-rule="nonzero"></path>
                            <path d="M155.665026,78.8454767 C157.423051,78.3743065 158.724094,76.8905771 158.96144,75.0861952 C159.198786,73.2818133 158.32569,71.5121504 156.749302,70.6024524 C155.172914,69.6927544 153.203703,69.8221856 151.75997,70.9303884 C150.316236,72.0385911 149.682323,73.9073059 150.153842,75.665096 C150.797586,78.0649299 153.264871,79.4887448 155.665026,78.8454767 Z" fill-rule="nonzero"></path>
                            <path d="M130.316821,56.6806885 C131.603545,57.9683446 133.539342,58.3539557 135.221292,57.6576603 C136.903243,56.9613649 138,55.3203352 138,53.5 C138,51.6796648 136.903243,50.0386351 135.221292,49.3423397 C133.539342,48.6460443 131.603545,49.0316554 130.316821,50.3193115 C128.56106,52.0763447 128.56106,54.9236553 130.316821,56.6806885 Z" fill-rule="nonzero"></path>
                            <path d="M102.334904,49.8461584 C104.092694,50.3176773 105.961409,49.6837638 107.069612,48.2400304 C108.177814,46.7962971 108.307246,44.8270859 107.397548,43.2506981 C106.48785,41.6743103 104.718187,40.801214 102.913805,41.0385599 C101.109423,41.2759057 99.6256935,42.5769486 99.1545233,44.3349738 C98.5112552,46.7351289 99.9350701,49.2024142 102.334904,49.8461584 Z" fill-rule="nonzero"></path>
                            <path d="M73.3349738,49.1512839 C71.5769486,49.6226266 70.2759057,51.1068994 70.0385599,52.9119421 C69.801214,54.7169848 70.6743103,56.4872958 72.2506981,57.397327 C73.8270859,58.3073581 75.7962971,58.1778795 77.2400304,57.0692709 C78.6837638,55.9606623 79.3176773,54.0912631 78.8461584,52.3328294 C78.1955112,49.9374261 75.7339864,48.5164153 73.3349738,49.1512839 Z" fill-rule="nonzero"></path>
                            <path d="M50.3168212,77.6806885 C51.6035454,78.9683446 53.5393415,79.3539557 55.2212924,78.6576603 C56.9032434,77.9613649 58,76.3203352 58,74.5 C58,72.6796648 56.9032434,71.0386351 55.2212924,70.3423397 C53.5393415,69.6460443 51.6035454,70.0316554 50.3168212,71.3193115 C48.5610596,73.0763447 48.5610596,75.9236553 50.3168212,77.6806885 Z" fill-rule="nonzero"></path>
                            <path d="M44.3328294,107.846158 C46.0912631,108.317677 47.9606623,107.683764 49.0692709,106.24003 C50.1778795,104.796297 50.3073581,102.827086 49.397327,101.250698 C48.4872958,99.6743103 46.7169848,98.801214 44.9119421,99.0385599 C43.1068994,99.2759057 41.6226266,100.576949 41.1512839,102.334974 C40.5164153,104.733986 41.9374261,107.195511 44.3328294,107.846158 Z" fill-rule="nonzero"></path>
                            <path d="M52.3349738,128.154523 C50.5769486,128.625693 49.2759057,130.109423 49.0385599,131.913805 C48.801214,133.718187 49.6743103,135.48785 51.2506981,136.397548 C52.8270859,137.307246 54.7962971,137.177814 56.2400304,136.069612 C57.6837638,134.961409 58.3176773,133.092694 57.8461584,131.334904 C57.2024142,128.93507 54.7351289,127.511255 52.3349738,128.154523 Z" fill-rule="nonzero"></path>
                            <path d="M77.6758384,151.311889 C75.9166939,149.559516 73.0706078,149.563175 71.3159748,151.320066 C69.5613417,153.076956 69.5613417,155.923044 71.3159748,157.679934 C73.0706078,159.436825 75.9166939,159.440484 77.6758384,157.688111 C78.5235086,156.843704 79,155.696482 79,154.5 C79,153.303518 78.5235086,152.156296 77.6758384,151.311889 Z" fill-rule="nonzero"></path>
                            <path d="M104.665096,157.153842 C102.907306,156.682323 101.038591,157.316236 99.9303884,158.75997 C98.8221856,160.203703 98.6927544,162.172914 99.6024524,163.749302 C100.51215,165.32569 102.281813,166.198786 104.086195,165.96144 C105.890577,165.724094 107.374307,164.423051 107.845477,162.665026 C108.488745,160.264871 107.06493,157.797586 104.665096,157.153842 Z" fill-rule="nonzero"></path>
                            <path d="M133.678406,158.84507 C136.074164,158.194599 137.490486,155.725812 136.843305,153.328345 C136.196124,150.930878 133.730052,149.510892 131.332647,150.155259 C128.935241,150.799625 127.512639,153.264796 128.153715,155.663904 C128.804054,158.066313 131.275143,159.489188 133.678406,158.84507 Z" fill-rule="nonzero"></path>
                            <path d="M157.68833,129.319311 C156.400743,128.031655 154.463649,127.646044 152.780571,128.34234 C151.097492,129.038635 150,130.679665 150,132.5 C150,134.320335 151.097492,135.961365 152.780571,136.65766 C154.463649,137.353956 156.400743,136.968345 157.68833,135.680689 C159.437223,133.920334 159.437223,131.079666 157.68833,129.319311 Z" fill-rule="nonzero"></path>
                            <path d="M180.390148,118.779475 C182.738055,119.433838 185.248465,118.602535 186.741902,116.676141 C188.235339,114.749746 188.414926,112.111205 187.196287,110.000191 C185.977648,107.889176 183.603034,106.725335 181.188118,107.055477 C178.773202,107.38562 176.798041,109.144118 176.190631,111.504771 C175.376537,114.668687 177.243313,117.902451 180.390148,118.779475 Z" fill-rule="nonzero"></path>
                            <path d="M181.808365,70.5008529 C181.199125,68.1396855 179.221509,66.3821642 176.805281,66.0545768 C174.389053,65.7269893 172.014925,66.8945097 170.799078,69.0082354 C169.583231,71.1219611 169.76756,73.7613634 171.265404,75.6855436 C172.763249,77.6097237 175.276609,78.4358632 177.623845,77.7755578 C180.764624,76.8920194 182.623574,73.6602726 181.808365,70.5008529 Z" fill-rule="nonzero"></path>
                            <path d="M155.284857,36.8001322 C153.578468,35.059322 150.988422,34.523921 148.731646,35.4454857 C146.47487,36.3670505 145,38.5623782 145,41 C145,43.4376218 146.47487,45.6329495 148.731646,46.5545143 C150.988422,47.476079 153.578468,46.940678 155.284857,45.1998678 C157.571714,42.8668802 157.571714,39.1331198 155.284857,36.8001322 Z" fill-rule="nonzero"></path>
                            <path d="M111.320298,31.7595577 C113.664668,32.4436213 116.189693,31.6382464 117.705138,29.7230669 C119.220583,27.8078874 119.423966,25.1651717 118.219418,23.0406307 C117.01487,20.9160896 114.642818,19.7337802 112.221387,20.0510137 C109.799957,20.3682473 107.812465,22.1217042 107.195766,24.4848484 C106.375932,27.6263878 108.203716,30.8501706 111.320298,31.7595577 Z" fill-rule="nonzero"></path>
                            <path d="M74.4991471,36.7934462 C76.8603145,36.1849762 78.6178358,34.2098588 78.9454232,31.7966833 C79.2730107,29.3835078 78.1054903,27.0123788 75.9917646,25.7980682 C73.8780389,24.5837575 71.2386366,24.767854 69.3144564,26.2638057 C67.3902763,27.7597574 66.5641368,30.2699427 67.2244422,32.6142134 C67.6319142,34.1332326 68.6281383,35.4277707 69.9930919,36.2119205 C71.3580455,36.9960704 72.9794282,37.2053168 74.4991471,36.7934462 Z" fill-rule="nonzero"></path>
                            <path d="M44.2607829,52.8076336 C42.5613083,51.0624754 39.9775557,50.5231949 37.7251001,51.4435066 C35.4726445,52.3638184 34,54.5604679 34,57 C34,59.4395321 35.4726445,61.6361816 37.7251001,62.5564934 C39.9775557,63.4768051 42.5613083,62.9375246 44.2607829,61.1923664 C45.3739962,60.0829826 46,58.5740063 46,57 C46,55.4259937 45.3739962,53.9170174 44.2607829,52.8076336 Z" fill-rule="nonzero"></path>
                            <path d="M27.6098524,89.2205252 C25.2619448,88.5661622 22.7515351,89.3974648 21.2580979,91.3238592 C19.7646607,93.2502536 19.5850736,95.8887955 20.8037126,97.9998095 C22.0223516,100.110824 24.3969656,101.274665 26.8118817,100.944523 C29.2267978,100.61438 31.2019591,98.8558819 31.8093688,96.4952292 C32.6234628,93.3313131 30.7566868,90.0975494 27.6098524,89.2205252 Z" fill-rule="nonzero"></path>
                            <path d="M30.5047708,129.190631 C28.1441181,129.798041 26.3856199,131.773202 26.0554774,134.188118 C25.7253349,136.603034 26.8891765,138.977648 29.0001905,140.196287 C31.1112045,141.414926 33.7497464,141.235339 35.6761408,139.741902 C37.6025352,138.248465 38.4338378,135.738055 37.7794748,133.390148 C36.9024506,130.243313 33.6686869,128.376537 30.5047708,129.190631 Z" fill-rule="nonzero"></path>
                            <path d="M61.2848571,162.800132 C59.5784681,161.059322 56.9884225,160.523921 54.7316462,161.445486 C52.47487,162.367051 51,164.562378 51,167 C51,169.437622 52.47487,171.632949 54.7316462,172.554514 C56.9884225,173.476079 59.5784681,172.940678 61.2848571,171.199868 C63.5717143,168.86688 63.5717143,165.13312 61.2848571,162.800132 Z" fill-rule="nonzero"></path>
                            <path d="M96.6098524,176.220525 C94.2619448,175.566162 91.7515351,176.397465 90.2580979,178.323859 C88.7646607,180.250254 88.5850736,182.888795 89.8037126,184.999809 C91.0223516,187.110824 93.3969656,188.274665 95.8118817,187.944523 C98.2267978,187.61438 100.201959,185.855882 100.809369,183.495229 C101.623463,180.331313 99.7566868,177.097549 96.6098524,176.220525 Z" fill-rule="nonzero"></path>
                            <path d="M133.500853,170.191635 C131.139686,170.800875 129.382164,172.778491 129.054577,175.194719 C128.726989,177.610947 129.89451,179.985075 132.008235,181.200922 C134.121961,182.416769 136.761363,182.23244 138.685544,180.734596 C140.609724,179.236751 141.435863,176.723391 140.775558,174.376155 C139.892019,171.235376 136.660273,169.376426 133.500853,170.191635 Z" fill-rule="nonzero"></path>
                            <path d="M171.199868,155.284857 C172.940678,153.578468 173.476079,150.988422 172.554514,148.731646 C171.632949,146.47487 169.437622,145 167,145 C164.562378,145 162.367051,146.47487 161.445486,148.731646 C160.523921,150.988422 161.059322,153.578468 162.800132,155.284857 C165.13312,157.571714 168.86688,157.571714 171.199868,155.284857 Z" fill-rule="nonzero"></path>
                            <path d="M202.796364,123.235916 C199.062513,122.245015 195.231794,124.466278 194.237517,128.198807 C193.24324,131.931336 195.461431,135.763524 199.193548,136.760935 C202.925664,137.758345 206.760252,135.543767 207.761038,131.812977 C208.242751,130.017219 207.990004,128.103609 207.058573,126.494452 C206.127142,124.885295 204.593595,123.712871 202.796364,123.235916 Z" fill-rule="nonzero"></path>
                            <path d="M202.798758,84.7615844 C205.535872,84.0339485 207.564681,81.7289401 207.938535,78.9220834 C208.31239,76.1152267 206.957607,73.3597324 204.506332,71.9413227 C202.055057,70.5229131 198.990419,70.7211463 196.742387,72.4435259 C194.494354,74.1659056 193.505999,77.0729635 194.23849,79.8082573 C194.714511,81.6013806 195.88464,83.1314225 197.490646,84.0607244 C199.096652,84.9900264 201.006516,85.2421965 202.798758,84.7615844 Z" fill-rule="nonzero"></path>
                            <path d="M170.058219,37.9577006 C172.794206,40.6849025 177.222267,40.6801553 179.9524,37.9470935 C182.682533,35.2140317 182.682533,30.7859683 179.9524,28.0529065 C177.222267,25.3198447 172.794206,25.3150975 170.058219,28.0422994 C168.740592,29.3556953 168,31.1395836 168,33 C168,34.8604164 168.740592,36.6443047 170.058219,37.9577006 Z" fill-rule="nonzero"></path>
                            <path d="M128.189464,13.7602961 C131.922579,14.7593763 135.759067,12.5441875 136.759613,8.8118901 C137.76016,5.07959269 135.54608,1.2427786 131.813685,0.24101147 C128.08129,-0.760755664 124.243209,1.45167085 123.239975,5.18324706 C122.757743,6.9769339 123.008417,8.88872613 123.93678,10.4975012 C124.865143,12.1062763 126.395037,13.2800602 128.189464,13.7602961 Z" fill-rule="nonzero"></path>
                            <path d="M79.8309089,13.7562022 C83.5580376,12.745784 85.7624369,8.9069855 84.7567906,5.1781435 C83.7511443,1.44930149 79.9155675,-0.760152783 76.1859309,0.240966212 C72.4562943,1.24208521 70.2423295,5.07537355 71.2386745,8.80671222 C71.7187288,10.6045286 72.8948501,12.1371521 74.507132,13.0658946 C76.119414,13.9946371 78.035121,14.2430373 79.8309089,13.7562022 Z" fill-rule="nonzero"></path>
                            <path d="M28.0474763,37.9468245 C30.0488439,39.9503802 33.0602848,40.5506928 35.6769698,39.4677181 C38.2936548,38.3847433 40,35.8318674 40,33 C40,30.1681326 38.2936548,27.6152567 35.6769698,26.5322819 C33.0602848,25.4493072 30.0488439,26.0496198 28.0474763,28.0531755 C25.3175079,30.7861287 25.3175079,35.2138713 28.0474763,37.9468245 Z" fill-rule="nonzero"></path>
                            <path d="M8.80825734,71.2384904 C6.07296355,70.5059992 3.16590558,71.4943544 1.44352592,73.7423866 C-0.27885375,75.9904187 -0.477086876,79.0550572 0.941322745,81.5063321 C2.35973236,83.957607 5.11522673,85.3123902 7.92208342,84.9385355 C10.7289401,84.5646808 13.0339485,82.5358722 13.7615844,79.7987583 C14.2421965,78.0065164 13.9900264,76.0966524 13.0607244,74.4906462 C12.1314225,72.8846401 10.6013806,71.7145112 8.80825734,71.2384904 Z" fill-rule="nonzero"></path>
                            <path d="M5.18324706,123.243361 C1.45167085,124.246348 -0.760755664,128.083485 0.24101147,131.814961 C1.2427786,135.546438 5.07959269,137.759973 8.8118901,136.759672 C12.5441875,135.759372 14.7593763,131.923828 13.7602961,128.191632 C13.2836513,126.395403 12.1105136,124.863274 10.5006613,123.934518 C8.89080893,123.005762 6.97707954,122.757016 5.18324706,123.243361 Z" fill-rule="nonzero"></path>
                            <path d="M37.9493865,170.049892 C35.215611,167.316515 30.7836418,167.31673 28.0501322,170.050373 C25.3166226,172.784015 25.3166226,177.215985 28.0501322,179.949627 C30.7836418,182.68327 35.215611,182.683485 37.9493865,179.950108 C39.2623619,178.637324 40,176.856692 40,175 C40,173.143308 39.2623619,171.362676 37.9493865,170.049892 Z" fill-rule="nonzero"></path>
                            <path d="M79.7963637,194.235916 C76.0625135,193.245015 72.2317942,195.466278 71.237517,199.198807 C70.2432399,202.931336 72.4614314,206.763524 76.1935475,207.760935 C79.9256636,208.758345 83.7602517,206.543767 84.7610382,202.812977 C85.2427513,201.017219 84.9900035,199.103609 84.0585726,197.494452 C83.1271418,195.885295 81.5935947,194.712871 79.7963637,194.235916 Z" fill-rule="nonzero"></path>
                            <path d="M128.183247,194.239975 C124.451671,195.243209 122.239244,199.08129 123.241011,202.813685 C124.242779,206.54608 128.079593,208.76016 131.81189,207.759613 C135.544188,206.759067 137.759376,202.922579 136.760296,199.189464 C136.28006,197.395037 135.106276,195.865143 133.497501,194.93678 C131.888726,194.008417 129.976934,193.757743 128.183247,194.239975 Z" fill-rule="nonzero"></path>
                            <path d="M179.936369,170.042299 C177.201622,167.315098 172.775568,167.319845 170.046672,170.052906 C167.317776,172.785968 167.317776,177.214032 170.046672,179.947094 C172.775568,182.680155 177.201622,182.684902 179.936369,179.957701 C181.257149,178.646304 182,176.861667 182,175 C182,173.138333 181.257149,171.353696 179.936369,170.042299 Z" fill-rule="nonzero"></path>
                            <path d="M125,107.985294 C123.330614,109.669786 121.784886,111.323084 120.1155,112.867201 C118.8561,114.023707 117.524003,115.096944 116.127523,116.080214 C114.156082,117.434468 111.643936,117.703763 109.434521,116.797683 C107.724409,116.23725 106.489509,114.729804 106.265779,112.92959 C103.854444,114.894831 101.628596,117.187611 98.289824,117.327986 C98.011593,118.622549 97.733362,119.963904 97.455131,121.305258 C97.2981267,121.884171 97.1793601,122.472956 97.0996136,123.067736 C97.0996136,123.925579 96.6358952,124.268717 95.8012022,124.440285 C93.7453843,124.861408 89.3091456,126 89,126 C91.4577072,114.286542 93.8999571,102.604278 96.3576642,91.0467914 L103.808072,91.0467914 C103.42164,92.9340463 99.95921,109.576203 99.9282954,109.763369 C99.7273508,111.744207 100.97939,112.882799 102.896093,112.336898 C103.988438,111.906094 105.026196,111.34587 105.987548,110.668004 C106.142121,110.574421 106.188493,110.278075 106.234865,110.059715 C107.548733,103.820856 108.831687,97.6599822 110.130099,91.4679144 C110.167604,91.3075788 110.219337,91.1509753 110.284672,91 L117.704165,91 C117.302276,92.9184492 114.782739,105.16221 113.901675,109.435829 C113.870437,109.778242 113.870437,110.122827 113.901675,110.465241 C113.834985,111.376162 114.475017,112.185142 115.370116,112.321301 C116.197077,112.581477 117.09428,112.479628 117.84328,112.040553 C118.649172,111.572463 119.423705,111.051435 120.161872,110.480838 C120.962853,109.884991 121.717324,109.22798 122.418635,108.515597 C123.128529,107.896621 124.106777,107.695655 125,107.985294 Z" fill-rule="evenodd"></path>
                        </g>
                    </g>
                </g>
            </g>
        </g>
    </g>
</svg>