<?xml version="1.0" encoding="UTF-8"?>
<svg width="308px" height="157px" viewBox="0 0 308 157" version="1.1" xmlns="http://www.w3.org/2000/svg" xmlns:xlink="http://www.w3.org/1999/xlink">
    <!-- Generator: Sketch 42 (36781) - http://www.bohemiancoding.com/sketch -->
    <title>Header Copy</title>
    <desc>Created with Sketch.</desc>
    <defs>
        <polygon id="path-1" points="0.0519140337 100.762124 49.9624878 100.762124 99.8730616 100.762124 99.8730616 0.336119099 0.0519140337 0.336119099"></polygon>
    </defs>
    <g id="Page-1" stroke="none" stroke-width="1" fill="none" fill-rule="evenodd">
        <g id="Desktop-HD" transform="translate(-164.000000, -28.000000)">
            <g id="Header-Copy" transform="translate(162.000000, 19.000000)">
                <text id="Grails-Guides" font-family="Roboto-Medium, Roboto" font-size="52" font-weight="400" letter-spacing="0.207999989" fill="#000000">
                    <tspan x="0.120656319" y="48">Grails Guides</tspan>
                </text>
                <g id="Group-7" transform="translate(2.000000, 64.000000)">
                    <g id="ocicube-copy">
                        <g id="Group-33" transform="translate(-0.000000, 0.000000)">
                            <mask id="mask-2" fill="white">
                                <use xlink:href="#path-1"></use>
                            </mask>
                            <g id="Clip-30"></g>
                            <path d="M39.5057144,55.4253614 C39.5057144,54.5302627 38.7503653,53.5776576 37.8306216,53.3042941 L17.2242112,47.2077885 C16.306198,46.9335916 15.5543097,47.4469816 15.5543097,48.3387466 L15.5543097,71.8238363 C15.5543097,72.7222687 16.306198,73.6740404 17.2242112,73.9449036 L37.8306216,80.0405758 C38.7503653,80.3139392 39.5057144,79.8055498 39.5057144,78.9129514 L39.5057144,55.4253614 Z M56.949695,99.5377258 C56.949695,100.432824 56.1926154,100.957882 55.2728717,100.693687 L1.71921975,85.6528613 C0.797745652,85.3894989 0.0423964609,84.4502287 0.0423964609,83.5542966 L0.0423964609,28.8957692 C0.0423964609,27.9973368 0.797745652,27.4789463 1.71921975,27.7423087 L55.2728717,42.7831339 C56.1926154,43.0431626 56.949695,43.992434 56.949695,44.8850324 L56.949695,99.5377258 L56.949695,99.5377258 Z" id="Fill-31" fill="#255AA8" mask="url(#mask-2)"></path>
                            <path d="M86.1141339,11.4230091 L99.139365,14.9117271 C100.0842,15.1759229 100.121405,15.838496 99.2224275,16.3668876 L61.1607884,39.4519333 C60.2600799,39.9919928 58.7450553,40.2120171 57.7915676,39.9486547 L2.85267615,24.5911279 C1.9017841,24.3235984 1.86803998,23.6726932 2.7696137,23.1359674 L43.0384644,0.942686739 C43.9452296,0.408461161 45.4628498,0.182602922 46.4111462,0.446798722 L55.7755726,3.14209594 L56.5361132,3.36295363 C57.7984895,3.66715384 57.9775929,4.12970485 57.9862452,4.39056695 C58.000089,4.90895744 57.4523959,5.2673303 57.4523959,5.2673303 L33.4075459,19.1946994 C32.5077027,19.7322587 32.5267378,20.3956652 33.4499424,20.665695 L54.4085031,26.5546777 C55.3351686,26.8255409 56.8354841,26.5988492 57.7387883,26.0646237 L81.3008378,12.4572898 C81.3008378,12.4572898 82.5502355,11.875559 83.5296803,11.4771817 C84.8768495,10.9262877 86.1141339,11.4230091 86.1141339,11.4230091" id="Fill-32" fill="#66D8E0" mask="url(#mask-2)"></path>
                        </g>
                        <path d="M88.4955983,54.6239429 C88.5077116,53.20712 89.2613303,52.5095431 90.1992439,51.9378134 L101.301925,45.1345632 C102.24503,44.562 103.468471,45.1212284 103.468471,46.3721997 L103.458088,76.3180019 C103.3906,77.4997989 103.475393,78.2532153 101.519964,79.5416907 L89.8981425,87.642584 C88.9541723,88.2151471 88.4281101,87.7184257 88.4281101,86.8099922 L88.4955983,54.6239429" id="Fill-34" fill="#FEB672"></path>
                        <path d="M87.9842451,32.0956253 C87.9842451,31.1905255 88.7543033,29.9837258 89.6904863,29.4119961 L101.847888,21.7353162 C102.785801,21.1660868 103.475393,21.8011568 103.475393,22.7054232 L103.419153,37.3095336 C103.349934,38.3871525 102.851559,39.2105766 101.839235,39.8614817 L89.6126153,47.2906343 C88.6781627,47.8548632 87.9859756,47.5064914 87.9859756,46.6013916 L87.9842451,32.0956253" id="Fill-35" fill="#FEB672"></path>
                    </g>
                    <g id="Copy" transform="translate(114.000000, 33.000000)">
                        <g id="OCI--Copy">
                            <g id="Group-2">
                                <g id="OCI" transform="translate(0.000000, 27.000000)" fill="#000000">
                                    <path d="M33.5285771,4.46375487 C33.1782869,4.05318066 32.7453324,3.73483689 32.2266136,3.51169873 C31.7171945,3.29451093 31.1240778,3.18542116 30.4431302,3.18542116 C29.7683824,3.18542116 29.1494331,3.3054199 28.5707826,3.55930154 C27.9962654,3.8022742 27.4909795,4.15433662 27.0724913,4.60656329 C26.6519364,5.05878995 26.3243789,5.58936291 26.0867189,6.21018285 C25.8449256,6.82406071 25.724029,7.49347518 25.724029,8.21941799 C25.724029,8.95924494 25.8449256,9.62865941 26.0867189,10.2385704 C26.3243789,10.8514565 26.6478032,11.3820295 27.0631915,11.8273141 C27.4775466,12.2795407 27.961133,12.6316031 28.5222173,12.8825096 C29.0833016,13.1363912 29.6867514,13.2603569 30.3335999,13.2603569 C31.0641461,13.2603569 31.722361,13.1096147 32.2875785,12.8140806 C32.8548626,12.5195382 33.3219162,12.1109474 33.6918392,11.5764076 L36.6863553,13.7195256 C35.9950747,14.6507555 35.1219325,15.331079 34.0627955,15.7763636 C32.998492,16.2176813 31.9114557,16.438836 30.7913538,16.438836 C29.5193561,16.438836 28.3424224,16.2434661 27.2708857,15.8666106 C26.1952158,15.4808295 25.2683418,14.9343889 24.4830305,14.2163799 C23.7018523,13.4993626 23.0942694,12.63557 22.6540817,11.6180601 C22.2180272,10.6084839 22,9.47097512 22,8.21941799 C22,6.96984431 22.2180272,5.82936039 22.6540817,4.81581729 C23.0942694,3.79929902 23.7018523,2.93153952 24.4830305,2.2244395 C25.2683418,1.50643049 26.1952158,0.956023038 27.2708857,0.572225408 C28.3424224,0.190411227 29.5193561,0 30.7913538,0 C31.2491076,0 31.7326941,0.0376855554 32.2266136,0.119998742 C32.7298328,0.202311929 33.2185858,0.332227923 33.7032056,0.503796373 C34.1888586,0.684290349 34.6507457,0.915362307 35.0991998,1.2148633 C35.544554,1.50643049 35.9444428,1.86940189 36.294733,2.29187681 L33.5285771,4.46375487" id="Fill-4"></path>
                                    <polygon id="Fill-5" points="44 16.6385138 47.5927994 16.6385138 47.5927994 1 44 1"></polygon>
                                    <path d="M3.72816225,8.22338489 C3.72816225,8.95230287 3.84595895,9.62865941 4.08775218,10.2385704 C4.32127897,10.8514565 4.66433603,11.3790543 5.10762362,11.8273141 C5.55607772,12.2795407 6.08616288,12.6316031 6.70924542,12.8864765 C7.32922806,13.1363912 8.02464192,13.2524231 8.79342039,13.2524231 C9.56116555,13.2524231 10.2524462,13.1363912 10.8786287,12.8864765 C11.5017112,12.6316031 12.0297297,12.2795407 12.4761172,11.8273141 C12.9163049,11.3790543 13.2634952,10.8514565 13.5001219,10.2385704 C13.7377819,9.62865941 13.8545453,8.95230287 13.8545453,8.22338489 C13.8545453,7.49347518 13.7377819,6.83100279 13.5001219,6.20720767 C13.2634952,5.58638773 12.9163049,5.05482305 12.4761172,4.60656329 C12.0297297,4.15433662 11.5017112,3.81318317 10.8786287,3.55533464 C10.2524462,3.3054199 9.56116555,3.18542116 8.79342039,3.18542116 C8.02464192,3.18542116 7.32922806,3.3054199 6.70924542,3.55533464 C6.08616288,3.81318317 5.55607772,4.15433662 5.10762362,4.60656329 C4.66433603,5.05482305 4.32127897,5.58638773 4.08775218,6.20720767 C3.84595895,6.83100279 3.72816225,7.49347518 3.72816225,8.22338489 M0,8.22338489 C0,6.9658774 0.214927314,5.83233557 0.650981768,4.81581729 C1.09116944,3.79929902 1.70081903,2.9424485 2.48199715,2.21749742 C3.26730849,1.51039739 4.19624914,0.959989938 5.27191901,0.572225408 C6.34552228,0.190411227 7.51522285,0 8.79342039,0 C10.0674847,0 11.2423518,0.190411227 12.3159551,0.572225408 C13.3916249,0.959989938 14.318499,1.51039739 15.1017437,2.21749742 C15.8849884,2.9424485 16.494638,3.79929902 16.9286259,4.81581729 C17.3698468,5.83233557 17.5878741,6.9658774 17.5878741,8.22338489 C17.5878741,9.47097512 17.3698468,10.604517 16.9286259,11.6210352 C16.494638,12.6395369 15.8849884,13.4993626 15.1017437,14.2163799 C14.318499,14.9343889 13.3916249,15.4768626 12.3159551,15.8666106 C11.2423518,16.247433 10.0674847,16.438836 8.79342039,16.438836 C7.51522285,16.438836 6.34552228,16.247433 5.27191901,15.8666106 C4.19624914,15.4768626 3.26730849,14.9343889 2.48199715,14.2163799 C1.70081903,13.4993626 1.09116944,12.6395369 0.650981768,11.6210352 C0.214927314,10.604517 0,9.47097512 0,8.22338489" id="Fill-1"></path>
                                </g>
                                <path d="M65.9546218,69 C64.8765201,69 64,68.4630653 64,67.801624 L64,1.20726933 C64,0.541381366 64.8765201,2.13162821e-14 65.9546218,2.13162821e-14 C67.027324,2.13162821e-14 67.9020442,0.541381366 67.9020442,1.20726933 L67.9020442,67.801624 C67.9020442,68.4630653 67.027324,69 65.9546218,69" id="Fill-29" fill="#255AA8"></path>
                                <g id="We-are-software-Engineers" transform="translate(83.000000, 7.000000)" fill="#000000">
                                    <polyline id="Fill-6" points="0.843034416 0.0870639193 2.02513464 0.0870639193 5.08888217 10.5646401 5.12504782 10.5646401 8.23736065 0.0870639193 9.70258628 0.0870639193 12.8221322 10.5646401 12.8593312 10.5646401 15.9210121 0.0870639193 17.1062123 0.0870639193 13.5216793 11.914378 12.1060523 11.914378 8.98960625 1.38424041 8.95550721 1.38424041 5.83802785 11.914378 4.42756736 11.914378 0.843034416 0.0870639193"></polyline>
                                    <polyline id="Fill-7" points="20.6194472 0.0870639193 28.1636026 0.0870639193 28.1636026 1.08870631 21.769515 1.08870631 21.769515 5.29560437 27.7616472 5.29560437 27.7616472 6.30220539 21.769515 6.30220539 21.769515 10.9157108 28.4394948 10.9157108 28.4394948 11.914378 20.6194472 11.914378 20.6194472 0.0870639193"></polyline>
                                    <path d="M43.2736127,1.28407617 L40.4020598,7.77491723 L46.0583681,7.77491723 L43.2736127,1.28407617 Z M42.738361,0.0870639193 L43.919428,0.0870639193 L49.1097159,11.914378 L47.820152,11.914378 L46.4778896,8.77358445 L39.9515391,8.77358445 L38.5586448,11.914378 L37.3538118,11.914378 L42.738361,0.0870639193 L42.738361,0.0870639193 Z" id="Fill-8"></path>
                                    <path d="M53.7761186,5.29560437 L56.2157502,5.29560437 C56.8150668,5.29560437 57.3058864,5.22915879 57.6851091,5.08337519 C58.0622652,4.93659987 58.3557236,4.76106452 58.5613512,4.54883534 C58.771112,4.33958133 58.9147413,4.11049282 58.9870726,3.86355326 C59.0676704,3.6205806 59.103836,3.39248382 59.103836,3.19017189 C59.103836,2.99678549 59.0676704,2.77265561 58.9870726,2.52472432 C58.9147413,2.28175166 58.771112,2.05365488 58.5613512,1.84043397 C58.3557236,1.63117997 58.0622652,1.45266944 57.6851091,1.30589412 C57.3058864,1.16110225 56.8150668,1.08473941 56.2157502,1.08473941 L53.7761186,1.08473941 L53.7761186,5.29560437 Z M52.630184,0.0870639193 L55.8644267,0.0870639193 C56.0307887,0.0870639193 56.248816,0.0900390947 56.5288415,0.105906697 C56.8078337,0.116815674 57.1085252,0.146567428 57.4329828,0.203095761 C57.7564071,0.258632369 58.0849979,0.344912456 58.4259883,0.471853275 C58.760779,0.591852017 59.0635371,0.771354268 59.3280631,1.00639313 C59.5987888,1.23548163 59.8209493,1.5339909 59.9945444,1.89002023 C60.1660729,2.24803301 60.2528705,2.67844172 60.2528705,3.19017189 C60.2528705,3.76338902 60.1516067,4.23049157 59.9521789,4.60040505 C59.745518,4.97031852 59.4913252,5.26585262 59.1823671,5.49097422 C58.8744424,5.72601308 58.5344853,5.89460636 58.1655956,6.0027044 C57.7905061,6.11576106 57.437116,6.18617355 57.1002588,6.23476808 L60.685825,11.914378 L59.3828282,11.914378 L55.9171253,6.30220539 L53.7761186,6.30220539 L53.7761186,11.914378 L52.630184,11.914378 L52.630184,0.0870639193 L52.630184,0.0870639193 Z" id="Fill-9"></path>
                                    <polyline id="Fill-10" points="64.6898796 0.0870639193 72.2299017 0.0870639193 72.2299017 1.08870631 65.838914 1.08870631 65.838914 5.29560437 71.8362127 5.29560437 71.8362127 6.30220539 65.838914 6.30220539 65.838914 10.9157108 72.5109605 10.9157108 72.5109605 11.914378 64.6898796 11.914378 64.6898796 0.0870639193"></polyline>
                                    <path d="M1.94867012,31.4384709 C2.2514283,31.9442507 2.64305067,32.3141642 3.12250391,32.5650706 C3.60712367,32.8040764 4.154775,32.9270503 4.77062441,32.9270503 C5.15398034,32.9270503 5.51253697,32.8744889 5.85146081,32.7624239 C6.19038465,32.6493673 6.48074318,32.4966416 6.72563633,32.2953214 C6.9787959,32.0930095 7.17615704,31.8540037 7.32391957,31.5664034 C7.46651558,31.2778114 7.53678027,30.9594676 7.53678027,30.60443 C7.53678027,30.1938558 7.44998271,29.8487355 7.27018774,29.5839448 C7.08832617,29.3181625 6.84859955,29.0970078 6.54377475,28.9264311 C6.24308317,28.7538709 5.90519264,28.6070956 5.53010314,28.4841217 C5.14778052,28.3641229 4.75822476,28.2332152 4.36040257,28.1181751 C3.96051377,27.9902425 3.57095801,27.8523927 3.19586852,27.6947085 C2.81767911,27.5419828 2.47875527,27.3406626 2.17703039,27.093723 C1.8753055,26.8309159 1.63454558,26.5175307 1.45268401,26.1436503 C1.27288904,25.7697699 1.18402487,25.2937419 1.18402487,24.7373841 C1.18402487,24.2147449 1.29458844,23.7506176 1.50331592,23.3430185 C1.72340976,22.9354195 2.01170168,22.5992247 2.37335822,22.3255085 C2.7443145,22.0527841 3.16486939,21.8435301 3.63605619,21.7046886 C4.11137621,21.5708057 4.61046223,21.4954346 5.13641417,21.4954346 C5.80702872,21.4954346 6.43321118,21.6074995 7.00462851,21.8355963 C7.58327897,22.0706352 8.08236499,22.4484824 8.49672006,22.9869892 L7.50061462,23.6722713 C7.20922278,23.2825233 6.87443216,22.9869892 6.48900962,22.7926111 C6.09635395,22.5992247 5.63963341,22.5050108 5.10128182,22.5050108 C4.72722563,22.5050108 4.37693544,22.5466632 4.0380116,22.6398854 C3.70322098,22.7360827 3.41182914,22.8749243 3.16073617,23.0623603 C2.9096432,23.2418626 2.70918215,23.4739262 2.56141962,23.7506176 C2.41159048,24.030284 2.33305935,24.3635037 2.33305935,24.7373841 C2.33305935,25.3284523 2.48702171,25.7846458 2.80631276,26.1029896 C3.11837069,26.4203416 3.50999305,26.6742233 3.97911325,26.8547173 C4.44616683,27.0332278 4.96075242,27.1938873 5.51047036,27.3406626 C6.06432151,27.4785124 6.57064067,27.6619815 7.04596069,27.8970204 C7.51301427,28.133051 7.90463664,28.450403 8.21876117,28.8768448 C8.5297858,29.2923777 8.68581476,29.86857 8.68581476,30.60443 C8.68581476,31.1389699 8.58455093,31.6149979 8.37375683,32.0265639 C8.16399604,32.441105 7.88707046,32.7842419 7.53264706,33.0728339 C7.17615704,33.3525004 6.76490189,33.5696882 6.30094822,33.7164635 C5.84009446,33.8543133 5.35857461,33.9326596 4.8605219,33.9326596 C4.04627803,33.9326596 3.29713235,33.7948098 2.61205154,33.5210937 C1.92800403,33.2444024 1.34108713,32.7882088 0.852334155,32.141604 L1.94867012,31.4384709" id="Fill-11"></path>
                                    <path d="M13.1486564,27.7105761 C13.1486564,28.4464361 13.2716197,29.1356851 13.5134129,29.7703892 C13.7552061,30.4070767 14.1054963,30.9634345 14.5611835,31.423595 C15.0127376,31.8877224 15.5583223,32.2616027 16.2103374,32.5273851 C16.8478862,32.7961426 17.5742991,32.9270503 18.3730434,32.9270503 C19.1707544,32.9270503 19.8951008,32.7961426 20.5388495,32.5273851 C21.1846647,32.2616027 21.7333493,31.8877224 22.1859367,31.423595 C22.6354241,30.9634345 22.9888142,30.4070767 23.2306074,29.7703892 C23.4755005,29.1356851 23.5922639,28.4464361 23.5922639,27.7105761 C23.5922639,26.9816581 23.4755005,26.2924091 23.2306074,25.6616719 C22.9888142,25.0220092 22.6354241,24.4676348 22.1859367,24.0044992 C21.7333493,23.5334298 21.1846647,23.1704583 20.5388495,22.9007091 C19.8951008,22.6359185 19.1707544,22.5050108 18.3730434,22.5050108 C17.5742991,22.5050108 16.8478862,22.6359185 16.2103374,22.9007091 C15.5583223,23.1704583 15.0127376,23.5334298 14.5611835,24.0044992 C14.1054963,24.4676348 13.7552061,25.0220092 13.5134129,25.6616719 C13.2716197,26.2924091 13.1486564,26.9816581 13.1486564,27.7105761 M11.9996219,27.7105761 C11.9996219,26.8130648 12.1556509,25.9829909 12.4708088,25.2272963 C12.7849333,24.4676348 13.2178878,23.8061542 13.7748389,23.2646722 C14.33179,22.7073227 15.0013712,22.2739388 15.7835826,21.9625371 C16.5668274,21.6570858 17.4286032,21.4954346 18.3730434,21.4954346 C19.3112838,21.4954346 20.1751263,21.6570858 20.958371,21.9625371 C21.7416158,22.2739388 22.411197,22.7073227 22.9671148,23.2646722 C23.5261325,23.8061542 23.9632202,24.4676348 24.2742448,25.2272963 C24.5894027,25.9829909 24.7464649,26.8130648 24.7464649,27.7105761 C24.7464649,28.6150294 24.5894027,29.4530371 24.2742448,30.2156738 C23.9632202,30.9743435 23.5261325,31.632849 22.9671148,32.1872233 C22.411197,32.7316805 21.7416158,33.1581223 20.958371,33.469524 C20.1751263,33.7749753 19.3112838,33.9326596 18.3730434,33.9326596 C17.4286032,33.9326596 16.5668274,33.7749753 15.7835826,33.469524 C15.0013712,33.1581223 14.33179,32.7316805 13.7748389,32.1872233 C13.2178878,31.632849 12.7849333,30.9743435 12.4708088,30.2156738 C12.1556509,29.4530371 11.9996219,28.6150294 11.9996219,27.7105761" id="Fill-12"></path>
                                    <polyline id="Fill-13" points="28.2762327 21.7979108 35.6591926 21.7979108 35.6591926 22.8045118 29.4283671 22.8045118 29.4283671 27.0153767 35.2272714 27.0153767 35.2272714 28.0130522 29.4283671 28.0130522 29.4283671 33.6301834 28.2762327 33.6301834 28.2762327 21.7979108"></polyline>
                                    <polyline id="Fill-14" points="42.4335362 22.8005449 38.2197209 22.8005449 38.2197209 21.7979108 47.7943194 21.7979108 47.7943194 22.8005449 43.5825707 22.8005449 43.5825707 33.6301834 42.4335362 33.6301834 42.4335362 22.8005449"></polyline>
                                    <polyline id="Fill-15" points="50.4137461 21.7979108 51.5968796 21.7979108 54.6657936 32.2794538 54.6998927 32.2794538 57.8101389 21.7979108 59.2732979 21.7979108 62.3938772 32.2794538 62.4259096 32.2794538 65.4937904 21.7979108 66.6758906 21.7979108 63.092391 33.6301834 61.6788306 33.6301834 58.5613512 23.1000459 58.5272522 23.1000459 55.4128727 33.6301834 54.0024122 33.6301834 50.4137461 21.7979108"></polyline>
                                    <path d="M73.8108574,22.9988899 L70.9362046,29.4867558 L76.6018126,29.4867558 L73.8108574,22.9988899 Z M73.2694059,21.8018777 L74.4546061,21.8018777 L79.6428274,33.6301834 L78.3532636,33.6301834 L77.017201,30.4893899 L70.4887838,30.4893899 L69.0938229,33.6301834 L67.8931232,33.6301834 L73.2694059,21.8018777 L73.2694059,21.8018777 Z" id="Fill-16"></path>
                                    <path d="M83.7884447,27.0074429 L86.2239431,27.0074429 C86.8273929,27.0074429 87.3202791,26.9439725 87.6974352,26.794222 C88.0704581,26.6524053 88.3680497,26.4729031 88.5757439,26.2596822 C88.7834381,26.0494364 88.9281007,25.8183645 88.9993987,25.5753918 C89.0779298,25.3353943 89.1161621,25.1072976 89.1161621,24.9059773 C89.1161621,24.7076323 89.0779298,24.4835024 88.9993987,24.2365629 C88.9281007,23.9935902 88.7834381,23.7645017 88.5757439,23.5483056 C88.3680497,23.3430185 88.0704581,23.1635163 87.6974352,23.0137658 C87.3202791,22.8749243 86.8273929,22.8005449 86.2239431,22.8005449 L83.7884447,22.8005449 L83.7884447,27.0074429 Z M82.6404435,21.7979108 L85.8767528,21.7979108 C86.0327818,21.7979108 86.2580422,21.8058446 86.5370343,21.8137784 C86.8139599,21.8207204 87.119818,21.8544391 87.4432423,21.9099757 C87.7676999,21.966504 88.0952574,22.056751 88.4383144,22.1797249 C88.7731051,22.3066657 89.07173,22.486168 89.3424558,22.7142648 C89.6069817,22.9463285 89.8291421,23.2488046 90.0037706,23.5998753 C90.1763324,23.9598716 90.2641633,24.3932554 90.2641633,24.9059773 C90.2641633,25.4742359 90.1639328,25.9413384 89.9583052,26.3122436 C89.7537109,26.6781902 89.499518,26.9737243 89.1884934,27.2018211 C88.8857352,27.4338847 88.5468114,27.6094201 88.1758551,27.7105761 C87.8048988,27.822641 87.4473755,27.9049542 87.1125849,27.9495818 L90.7002177,33.6301834 L89.3972209,33.6301834 L85.931518,28.0170191 L83.7884447,28.0170191 L83.7884447,33.6301834 L82.6404435,33.6301834 L82.6404435,21.7979108 L82.6404435,21.7979108 Z" id="Fill-17"></path>
                                    <polyline id="Fill-18" points="93.9117278 21.7979108 101.455883 21.7979108 101.455883 22.8045118 95.0617956 22.8045118 95.0617956 27.0153767 101.049795 27.0153767 101.049795 28.0130522 95.0617956 28.0130522 95.0617956 32.6235824 101.731775 32.6235824 101.731775 33.6301834 93.9117278 33.6301834 93.9117278 21.7979108"></polyline>
                                    <polyline id="Fill-19" points="2.30826005 43.4869396 9.8472489 43.4869396 9.8472489 44.4925489 3.45316131 44.4925489 3.45316131 48.7034139 9.44529349 48.7034139 9.44529349 49.7020811 3.45316131 49.7020811 3.45316131 54.3205451 10.1200413 54.3205451 10.1200413 55.3221875 2.30826005 55.3221875 2.30826005 43.4869396"></polyline>
                                    <polyline id="Fill-20" points="14.3751887 43.4869396 15.8486808 43.4869396 23.3546039 53.8524508 23.3928362 53.8524508 23.3928362 43.4869396 24.5408374 43.4869396 24.5408374 55.3221875 23.0570123 55.3221875 15.5541891 44.9606432 15.5242232 44.9606432 15.5242232 55.3221875 14.3751887 55.3221875 14.3751887 43.4869396"></polyline>
                                    <path d="M39.0535976,54.5555839 C38.3333844,54.9403733 37.5904385,55.2170646 36.8175269,55.3777241 C36.0466818,55.5393753 35.253104,55.6177216 34.4584929,55.6177216 C33.5192192,55.6177216 32.6553768,55.4679711 31.8731653,55.161528 C31.0899206,54.8550849 30.4162061,54.4217011 29.8602884,53.8752605 C29.3012707,53.3218779 28.8672829,52.6633724 28.5552249,51.9047026 C28.2400671,51.142066 28.0809382,50.3110003 28.0809382,49.4105139 C28.0809382,48.5060606 28.2400671,47.671028 28.5552249,46.9123583 C28.8672829,46.1576554 29.3012707,45.5021251 29.8602884,44.9527094 C30.4162061,44.3993268 31.0899206,43.9659429 31.8731653,43.6594998 C32.6553768,43.3451229 33.5192192,43.1884304 34.4584929,43.1884304 C36.2926082,43.1884304 37.7702335,43.7338792 38.8986019,44.8257686 L38.0626587,45.6677432 C37.8766639,45.4505554 37.6431371,45.2591525 37.3765445,45.076675 C37.1016856,44.889239 36.8051272,44.7285795 36.4848028,44.600647 C36.1655118,44.4737061 35.8307212,44.3735419 35.4876641,44.3021377 C35.1384072,44.2227997 34.7912169,44.1940397 34.4584929,44.1940397 C33.6566487,44.1940397 32.9323023,44.3249474 32.2885537,44.5907297 C31.6510049,44.8594872 31.098187,45.2254338 30.6455997,45.6935281 C30.1919791,46.1636058 29.8427222,46.7140132 29.5998957,47.3497091 C29.3560358,47.981438 29.231006,48.6667201 29.231006,49.4105139 C29.231006,50.1394319 29.3560358,50.8276891 29.5998957,51.463385 C29.8427222,52.0990808 30.1919791,52.6455213 30.6455997,53.115599 C31.098187,53.5876602 31.6510049,53.9496399 32.2885537,54.216414 C32.9323023,54.4881466 33.6566487,54.6160792 34.4584929,54.6160792 C35.1177411,54.6160792 35.7377238,54.5704598 36.3205074,54.4693039 C36.8981246,54.3651727 37.4271765,54.1817036 37.907663,53.9198881 L37.907663,49.93712 L34.944146,49.93712 L34.944146,48.9354776 L39.0535976,48.9354776 L39.0535976,54.5555839" id="Fill-21"></path>
                                    <polygon id="Fill-22" points="44.3999145 55.3261544 45.5479157 55.3261544 45.5479157 43.4869396 44.3999145 43.4869396"></polygon>
                                    <polyline id="Fill-23" points="51.1546253 43.4869396 52.6353505 43.4869396 60.139207 53.8524508 60.1733061 53.8524508 60.1733061 43.4869396 61.3264738 43.4869396 61.3264738 55.3221875 59.8467819 55.3221875 52.3408588 44.9606432 52.3088263 44.9606432 52.3088263 55.3221875 51.1546253 55.3221875 51.1546253 43.4869396"></polyline>
                                    <polyline id="Fill-24" points="66.446497 43.4869396 73.982386 43.4869396 73.982386 44.4925489 67.5882984 44.4925489 67.5882984 48.7034139 73.5824972 48.7034139 73.5824972 49.7020811 67.5882984 49.7020811 67.5882984 54.3205451 74.2603449 54.3205451 74.2603449 55.3221875 66.446497 55.3221875 66.446497 43.4869396"></polyline>
                                    <polyline id="Fill-25" points="78.5123924 43.4869396 86.0482814 43.4869396 86.0482814 44.4925489 79.6552271 44.4925489 79.6552271 48.7034139 85.6535591 48.7034139 85.6535591 49.7020811 79.6552271 49.7020811 79.6552271 54.3205451 86.3272736 54.3205451 86.3272736 55.3221875 78.5123924 55.3221875 78.5123924 43.4869396"></polyline>
                                    <path d="M92.0931121,48.7034139 L94.5348103,48.7034139 C95.1382601,48.7034139 95.6290797,48.6369683 96.0062358,48.4862261 C96.3771921,48.3483763 96.6778837,48.1609402 96.8804113,47.9556531 C97.0922387,47.7384653 97.235868,47.5143354 97.3102659,47.2683876 C97.3867305,47.0283901 97.4249627,46.7963264 97.4249627,46.6019483 C97.4249627,46.3966612 97.3867305,46.1715396 97.3102659,45.9325338 C97.235868,45.6855943 97.0922387,45.4545223 96.8804113,45.2452683 C96.6778837,45.0310557 96.3771921,44.8555203 96.0062358,44.7097367 C95.6290797,44.5639531 95.1382601,44.4856068 94.5348103,44.4856068 L92.0931121,44.4856068 L92.0931121,48.7034139 Z M90.9451109,43.4909065 L94.1834869,43.4909065 C94.3477823,43.4909065 94.5689094,43.4948734 94.8479016,43.5097493 C95.1248272,43.5166914 95.4275853,43.5514018 95.7541095,43.6059466 C96.0765005,43.662475 96.4061246,43.752722 96.7471151,43.8687538 C97.0798391,43.9956946 97.3825973,44.1751969 97.6512564,44.4112275 C97.9157823,44.6422994 98.1358762,44.9378335 98.3146378,45.296838 C98.4861663,45.6489004 98.5750305,46.0822843 98.5750305,46.6019483 C98.5750305,47.1662399 98.4748,47.6343342 98.2671058,48.0002808 C98.0645782,48.3741611 97.8083187,48.6696952 97.4993607,48.897792 C97.1966025,49.1258888 96.8576786,49.2944821 96.4825891,49.4105139 C96.1116329,49.514645 95.7603094,49.5929913 95.4213855,49.637619 L99.0090184,55.3182206 L97.7039549,55.3182206 L94.2341188,49.7100149 L92.0931121,49.7100149 L92.0931121,55.3182206 L90.9451109,55.3182206 L90.9451109,43.4909065 L90.9451109,43.4909065 Z" id="Fill-26"></path>
                                    <path d="M103.342697,53.3446876 C103.641322,53.8455087 104.039144,54.2223643 104.516531,54.4663287 C104.999084,54.7093013 105.549835,54.8362422 106.161551,54.8362422 C106.546974,54.8362422 106.90863,54.7836807 107.245488,54.6646737 C107.580278,54.5555839 107.87167,54.4018666 108.12173,54.2005463 C108.373856,54.0022013 108.571217,53.7562535 108.716913,53.4785704 C108.861576,53.1870033 108.928741,52.8656843 108.928741,52.5146136 C108.928741,52.1030477 108.846076,51.758919 108.664215,51.4941284 C108.480286,51.2243792 108.242626,51.0032245 107.941935,50.8346312 C107.641243,50.6561207 107.300253,50.5172792 106.92103,50.3903383 C106.546974,50.2624058 106.155352,50.1473657 105.756496,50.0194331 C105.352474,49.9004261 104.969118,49.7615846 104.589895,49.6009251 C104.213773,49.4442326 103.874849,49.2419206 103.570024,48.9910142 C103.271399,48.7450663 103.027539,48.4267226 102.845678,48.0488753 C102.670016,47.671028 102.581152,47.1999586 102.581152,46.6475677 C102.581152,46.1229451 102.688615,45.6558425 102.900443,45.2522104 C103.114337,44.8446113 103.402629,44.5044496 103.768418,44.2307335 C104.131108,43.9540422 104.555796,43.752722 105.03525,43.6178473 C105.50747,43.4690886 106.008622,43.4046264 106.531474,43.4046264 C107.205189,43.4046264 107.828271,43.5166914 108.403822,43.7487551 C108.975239,43.9768518 109.473292,44.3546991 109.89178,44.8932059 L108.898775,45.5814631 C108.607383,45.1847731 108.272592,44.8971728 107.878903,44.6988278 C107.487281,44.5044496 107.029527,44.4032937 106.496342,44.4032937 C106.125386,44.4032937 105.771996,44.4518882 105.433072,44.5461021 C105.096215,44.6422994 104.805856,44.7851078 104.551663,44.9675853 C104.30677,45.1431206 104.107342,45.3791512 103.952347,45.6558425 C103.804584,45.9365007 103.726053,46.2697204 103.726053,46.6475677 C103.726053,47.2376441 103.881049,47.6898708 104.19414,48.0082146 C104.507231,48.3255666 104.90402,48.5764731 105.374173,48.7599422 C105.841227,48.9424196 106.351679,49.1030791 106.904497,49.2419206 C107.455248,49.3837373 107.969834,49.5711734 108.435854,49.8022453 C108.906008,50.0392676 109.301763,50.3635618 109.608655,50.7830615 C109.921746,51.1985943 110.085008,51.7777618 110.085008,52.5146136 C110.085008,53.0491535 109.978578,53.516256 109.771917,53.9278219 C109.55389,54.3463299 109.277997,54.6983924 108.922541,54.9780589 C108.571217,55.262684 108.157895,55.4759049 107.696008,55.6216885 C107.235155,55.7635052 106.752601,55.8339177 106.252482,55.8339177 C105.441338,55.8339177 104.685993,55.7040017 104.004012,55.4263186 C103.324098,55.1545859 102.737181,54.6983924 102.246361,54.0478207 L103.342697,53.3446876" id="Fill-27"></path>
                                </g>
                            </g>
                        </g>
                    </g>
                    <text id="SPONSORED-BY:" font-family="Roboto-Light, Roboto" font-size="17" font-weight="300" letter-spacing="0.13333334" fill="#000000">
                        <tspan x="114.148991" y="21">SPONSORED BY:</tspan>
                    </text>
                </g>
            </g>
        </g>
    </g>
</svg>